<svg width="50" height="50" viewBox="0 0 100 100" version="1.1" xmlns="http://www.w3.org/2000/svg" xmlns:xlink="http://www.w3.org/1999/xlink">
<title>LEAF</title>
<desc>Created using Figma</desc>
<g id="Canvas" transform="translate(-1675 2731)">
<g id="LEAF">
<g id="Group 3">
<g id="LEAF-logo">
<use xlink:href="#path0_stroke" transform="matrix(0.981056 -0.193722 0.193722 0.981056 1669.82 -2715.49)" fill="#C9F02E"/>
</g>
<g id="Vector 8">
<use xlink:href="#path1_stroke" transform="matrix(0.981056 -0.193722 0.193722 0.981056 1716.73 -2724.75)" fill="#C9F02E"/>
</g>
</g>
<g id="Vector 9">
<use xlink:href="#path2_stroke" transform="matrix(0.981056 -0.193722 0.193722 0.981056 1737.06 -2681.65)" fill="#C9F02E"/>
</g>
<g id="Vector 8">
<use xlink:href="#path3_stroke" transform="matrix(0.981056 -0.193722 0.193722 0.981056 1738.17 -2638.01)" fill="#C9F02E"/>
</g>
</g>
</g>
<defs>
<path id="path0_stroke" d="M 47.8176 0L 48.7468 -4.91291L 46.344 -5.36734L 44.5101 -3.74972L 47.8176 0ZM 0.750466 66.3678L -4.11537 67.5183L -4.05922 67.7558L -3.98019 67.9867L 0.750466 66.3678ZM 85.9668 144.622L 84.4874 149.398L 87.3686 150.291L 89.5017 148.158L 85.9668 144.622ZM 121.143 33.6792L 126.018 32.5661L 125.996 32.4721L 125.971 32.3789L 121.143 33.6792ZM 44.5101 -3.74972C 36.2624 3.53227 22.6905 13.4791 11.8792 25.1478C 1.21358 36.6931 -7.95175 51.2927 -4.11537 67.5183L 5.6163 65.2173C 3.01192 54.2023 8.95763 43.0473 19.2245 31.9335C 29.3457 20.943 42.5278 11.3262 51.1251 3.74972L 44.5101 -3.74972ZM -3.98019 67.9867C 9.52877 107.461 48.1422 138.14 84.4874 149.398L 87.4462 139.846C 53.4384 129.312 17.7353 100.557 5.48112 64.7489L -3.98019 67.9867ZM 89.5017 148.158C 98.7034 138.96 110.453 122.023 118.604 101.59C 126.686 81.2648 131.345 56.3716 126.018 32.5661L 116.269 34.7922C 121.346 56.5526 117.087 78.4636 109.315 97.8849C 101.611 117.198 90.5707 132.95 82.4318 141.086L 89.5017 148.158ZM 125.971 32.3789C 121.752 16.7123 105.459 8.48919 90.2523 3.71159C 74.6309 -1.17386 57.7446 -3.20821 48.7468 -4.91291L 46.8884 4.91291C 56.222 6.67518 72.5305 8.60308 87.255 13.2518C 102.395 18.0084 113.598 24.8914 116.315 34.9794L 125.971 32.3789Z"/>
<path id="path1_stroke" d="M -4.83354 1.2794L 33.3156 145.406L 42.9827 142.848L 4.83354 -1.2794L -4.83354 1.2794Z"/>
<path id="path2_stroke" d="M 62.089 33.7955L 2.69501 -4.21152L -2.69501 4.21152L 56.6989 42.2186L 62.089 33.7955Z"/>
<path id="path3_stroke" d="M 15.0121 -2.32832L -4.42487 34.6104L 4.42475 39.267L 23.8617 2.32832L 15.0121 -2.32832Z"/>
</defs>
</svg>
