<svg width="601" height="80" viewBox="0 0 601 80" version="1.1" xmlns="http://www.w3.org/2000/svg" xmlns:xlink="http://www.w3.org/1999/xlink">
<title>logo</title>
<desc>Created using Figma</desc>
<g id="Canvas" transform="translate(-6089 7063)">
<g id="logo">
<g id="LEAFTRX">
<use xlink:href="#path0_fill" transform="translate(6184.43 -7043.77)" fill="#889E49"/>
<use xlink:href="#path1_fill" transform="translate(6184.43 -7043.77)" fill="#889E49"/>
<use xlink:href="#path2_fill" transform="translate(6184.43 -7043.77)" fill="#889E49"/>
<use xlink:href="#path3_fill" transform="translate(6184.43 -7043.77)" fill="#889E49"/>
</g>
<g id="LEAFTRX">
<use xlink:href="#path4_fill" transform="translate(6483.68 -7043.77)" fill="#4EB2BF"/>
<use xlink:href="#path5_fill" transform="translate(6483.68 -7043.77)" fill="#4EB2BF"/>
<use xlink:href="#path6_fill" transform="translate(6483.68 -7043.77)" fill="#4EB2BF"/>
</g>
<g id="logo-L">
<g id="Vector">
<use xlink:href="#path7_fill" transform="translate(6090 -7061.84)" fill="#889E49"/>
<use xlink:href="#path8_stroke" transform="translate(6090 -7061.84)"/>
</g>
<g id="Vector">
<use xlink:href="#path9_fill" transform="matrix(-1 0 0 1 6152.01 -7062)" fill="#677837"/>
<use xlink:href="#path10_stroke" transform="matrix(-1 0 0 1 6152.01 -7062)"/>
</g>
</g>
</g>
</g>
<defs>
<path id="path0_fill" d="M 0 43.8274L 0 0L 3.98415 0L 3.98415 40.0954L 35.9848 40.0954L 35.9848 43.8274L 0 43.8274Z"/>
<path id="path1_fill" d="M 73.8387 43.8274L 73.8387 0L 110.334 0L 110.334 3.73203L 78.1735 3.73203L 78.1735 18.8196L 108.708 18.8196L 108.708 22.5198L 78.1735 22.5198L 78.1735 40.0954L 110.812 40.0954L 110.812 43.8274L 73.8387 43.8274Z"/>
<path id="path2_fill" d="M 191.28 43.8274L 185.256 32.2805L 155.518 32.2805L 149.494 43.8274L 145.128 43.8274L 168.044 0L 172.73 0L 195.647 43.8274L 191.28 43.8274ZM 170.403 3.85962L 157.462 28.6122L 183.312 28.6122L 170.403 3.85962Z"/>
<path id="path3_fill" d="M 236.337 3.73203L 236.337 18.8196L 265.469 18.8196L 265.469 22.5198L 236.337 22.5198L 236.337 43.8274L 232.353 43.8274L 232.353 0L 267.031 0L 267.031 3.73203L 236.337 3.73203Z"/>
<path id="path4_fill" d="M 23.873 3.63634L 23.873 43.8274L 19.9207 43.8274L 19.9207 3.63634L 0 3.63634L 0 0L 43.7938 0L 43.7938 3.63634L 23.873 3.63634Z"/>
<path id="path5_fill" d="M 84.4525 25.0716L 84.4525 43.8274L 80.4683 43.8274L 80.4683 0L 102.27 0C 105.606 0 108.464 0.265814 110.843 0.797443C 113.223 1.30781 115.168 2.09462 116.676 3.15787C 118.206 4.19986 119.322 5.50767 120.023 7.08129C 120.724 8.65491 121.075 10.4943 121.075 12.5996C 121.075 15.8744 120.214 18.5007 118.493 20.4783C 116.772 22.4347 113.999 23.7744 110.174 24.4974L 125.123 43.8274L 120.119 43.8274L 105.999 24.944C 105.404 24.9865 104.798 25.0184 104.182 25.0397C 103.566 25.061 102.928 25.0716 102.27 25.0716L 84.4525 25.0716ZM 116.963 12.5996C 116.963 10.7283 116.634 9.21844 115.975 8.07012C 115.316 6.90054 114.243 5.99677 112.756 5.35881C 111.268 4.72086 109.314 4.29556 106.891 4.08291C 104.49 3.84899 101.536 3.73203 98.0304 3.73203L 84.4525 3.73203L 84.4525 21.3396L 97.9029 21.3396C 101.409 21.3396 104.373 21.2439 106.796 21.0525C 109.218 20.8398 111.183 20.4252 112.692 19.8085C 114.201 19.1705 115.284 18.288 115.943 17.161C 116.623 16.0126 116.963 14.4922 116.963 12.5996Z"/>
<path id="path6_fill" d="M 182.387 24.019L 163.518 43.8274L 158.482 43.8274L 179.901 21.3396L 159.534 0L 164.57 0L 182.387 18.7559L 200.268 0L 205.304 0L 184.937 21.3396L 206.324 43.8274L 201.32 43.8274L 182.387 24.019Z"/>
<path id="path7_fill" d="M 0 47.0038C 0 26.141 20.154 5.77788 31.0061 0L 31.0061 78.2356C 13.1776 78.2356 0 63.0882 0 47.0038Z"/>
<path id="path8_stroke" d="M 31.0061 0L 31.1311 0L 31.1311 -0.208165L 30.9474 -0.110336L 31.0061 0ZM 31.0061 78.2356L 31.0061 78.3606L 31.1311 78.3606L 31.1311 78.2356L 31.0061 78.2356ZM 30.9474 -0.110336C 25.502 2.78886 17.7374 9.33753 11.334 17.7695C 4.93073 26.2012 -0.125 36.534 -0.125 47.0038L 0.125 47.0038C 0.125 36.6108 5.14626 26.3307 11.533 17.9207C 17.9197 9.51086 25.658 2.98902 31.0648 0.110336L 30.9474 -0.110336ZM -0.125 47.0038C -0.125 63.1515 13.1029 78.3606 31.0061 78.3606L 31.0061 78.1106C 13.2523 78.1106 0.125 63.025 0.125 47.0038L -0.125 47.0038ZM 31.1311 78.2356L 31.1311 0L 30.8811 0L 30.8811 78.2356L 31.1311 78.2356Z"/>
<path id="path9_fill" d="M 0 47.0977C 0 26.1932 20.154 5.78941 31.0061 0L 31.0061 78.3918C 13.1776 78.3918 0 63.2141 0 47.0977Z"/>
<path id="path10_stroke" d="M 31.0061 0L 31.1311 0L 31.1311 -0.208361L 30.9473 -0.110287L 31.0061 0ZM 31.0061 78.3918L 31.0061 78.5168L 31.1311 78.5168L 31.1311 78.3918L 31.0061 78.3918ZM 30.9473 -0.110287C 25.5019 2.7947 17.7373 9.35644 11.3339 17.8052C 4.93066 26.2537 -0.125 36.6071 -0.125 47.0977L 0.125 47.0977C 0.125 36.6838 5.14632 26.383 11.5331 17.9562C 17.9197 9.52957 25.6581 2.99471 31.0649 0.110287L 30.9473 -0.110287ZM -0.125 47.0977C -0.125 63.2772 13.1027 78.5168 31.0061 78.5168L 31.0061 78.2668C 13.2525 78.2668 0.125 63.1511 0.125 47.0977L -0.125 47.0977ZM 31.1311 78.3918L 31.1311 0L 30.8811 0L 30.8811 78.3918L 31.1311 78.3918Z"/>
</defs>
</svg>
