<svg width="422" height="158" viewBox="0 0 422 158" version="1.1" xmlns="http://www.w3.org/2000/svg" xmlns:xlink="http://www.w3.org/1999/xlink">
<title>logo</title>
<desc>Created using Figma</desc>
<g id="Canvas" transform="translate(-3779 6488)">
<g id="logo">
<g id="LEAF">
<g id="Group 3.22">
<g id="Ellipse">
<use xlink:href="#path0_fill" transform="translate(4101 -6488)" fill="#9956B2"/>
</g>
<g id="F">
<use xlink:href="#path1_fill" transform="translate(4136 -6453)" fill="#FFFFFF"/>
</g>
</g>
<g id="Group 3.23">
<g id="Ellipse">
<use xlink:href="#path0_fill" transform="translate(3994 -6488)" fill="#A86839"/>
</g>
<g id="A">
<use xlink:href="#path2_fill" transform="translate(4029 -6453)" fill="#FFFFFF"/>
</g>
</g>
<g id="Group 3.24">
<g id="Ellipse">
<use xlink:href="#path0_fill" transform="translate(3886 -6488)" fill="#83A340"/>
</g>
<g id="E">
<use xlink:href="#path3_fill" transform="translate(3921 -6453)" fill="#FFFFFF"/>
</g>
</g>
<g id="Group 2.8">
<g id="Ellipse">
<use xlink:href="#path0_fill" transform="translate(3779 -6488)" fill="#FFB630"/>
</g>
<g id="L">
<use xlink:href="#path4_fill" transform="translate(3814 -6456)" fill="#FFFFFF"/>
</g>
</g>
</g>
<g id="STYL">
<use xlink:href="#path5_fill" transform="translate(3860 -6370)" fill="#4F4F4F"/>
</g>
</g>
</g>
<defs>
<path id="path0_fill" d="M 100 50C 100 77.6142 77.6142 100 50 100C 22.3858 100 0 77.6142 0 50C 0 22.3858 22.3858 0 50 0C 77.6142 0 100 22.3858 100 50Z"/>
<path id="path1_fill" d="M 1.45161 30C 1.05735 30 0.716846 29.8857 0.430108 29.6571C 0.143369 29.4286 0 29.1571 0 28.8429L 0 1.15714C 0 0.842857 0.143369 0.571428 0.430108 0.342857C 0.716846 0.114286 1.05735 0 1.45161 0L 28.5484 0C 28.9427 0 29.2832 0.114286 29.5699 0.342857C 29.8566 0.571428 30 0.842857 30 1.15714L 30 7.67143C 30 7.98571 29.8566 8.25714 29.5699 8.48571C 29.2832 8.71429 28.9427 8.82857 28.5484 8.82857L 13.172 8.82857L 13.172 12L 27.4731 12C 27.8674 12 28.2079 12.1143 28.4946 12.3429C 28.7814 12.5714 28.9247 12.8429 28.9247 13.1571L 28.9247 19.6286C 28.9247 19.9429 28.7814 20.2143 28.4946 20.4429C 28.2079 20.6714 27.8674 20.7857 27.4731 20.7857L 13.172 20.7857L 13.172 28.8429C 13.172 29.1571 13.0287 29.4286 12.7419 29.6571C 12.4552 29.8857 12.1147 30 11.7204 30L 1.45161 30Z"/>
<path id="path2_fill" d="M 0.874172 30C 0.635762 30 0.423841 29.9143 0.238411 29.7429C 0.0794702 29.5429 0 29.3143 0 29.0571C 0 28.9429 0.013245 28.8429 0.0397351 28.7571L 8.90066 1.41429C 9.00662 1.04286 9.2053 0.714285 9.49669 0.428571C 9.78808 0.142857 10.1854 0 10.6887 0L 19.3113 0C 19.8146 0 20.2119 0.142857 20.5033 0.428571C 20.7947 0.714285 20.9934 1.04286 21.0993 1.41429L 29.9603 28.7571C 29.9868 28.8429 30 28.9429 30 29.0571C 30 29.3143 29.9073 29.5429 29.7219 29.7429C 29.5629 29.9143 29.3642 30 29.1258 30L 21.7748 30C 20.9801 30 20.4636 29.6429 20.2252 28.9286L 19.2715 26.1L 10.7285 26.1L 9.77483 28.9286C 9.53642 29.6429 9.01987 30 8.22517 30L 0.874172 30ZM 17.245 17.7429L 14.9801 9.77143L 12.755 17.7429L 17.245 17.7429Z"/>
<path id="path3_fill" d="M 1.4087 30C 1.02609 30 0.695652 29.8857 0.417391 29.6571C 0.13913 29.4286 0 29.1571 0 28.8429L 0 1.15714C 0 0.842857 0.13913 0.571428 0.417391 0.342857C 0.695652 0.114286 1.02609 0 1.4087 0L 28.1739 0C 28.5565 0 28.887 0.114286 29.1652 0.342857C 29.4435 0.571428 29.5826 0.842857 29.5826 1.15714L 29.5826 7.2C 29.5826 7.51429 29.4435 7.78571 29.1652 8.01428C 28.887 8.24286 28.5565 8.35714 28.1739 8.35714L 12.5217 8.35714L 12.5217 11.0571L 27.0261 11.0571C 27.4087 11.0571 27.7391 11.1714 28.0174 11.4C 28.2957 11.6286 28.4348 11.9 28.4348 12.2143L 28.4348 17.7857C 28.4348 18.1 28.2957 18.3714 28.0174 18.6C 27.7391 18.8286 27.4087 18.9429 27.0261 18.9429L 12.5217 18.9429L 12.5217 21.6429L 28.5913 21.6429C 28.9739 21.6429 29.3043 21.7571 29.5826 21.9857C 29.8609 22.2143 30 22.4857 30 22.8L 30 28.8429C 30 29.1571 29.8609 29.4286 29.5826 29.6571C 29.3043 29.8857 28.9739 30 28.5913 30L 1.4087 30Z"/>
<path id="path4_fill" d="M 1.45161 30C 1.05735 30 0.716846 29.8857 0.430108 29.6571C 0.143369 29.4286 0 29.1571 0 28.8429L 0 1.15714C 0 0.842857 0.143369 0.571428 0.430108 0.342857C 0.716846 0.114286 1.05735 0 1.45161 0L 12.2043 0C 12.5986 0 12.9391 0.114286 13.2258 0.342857C 13.5125 0.571428 13.6559 0.842857 13.6559 1.15714L 13.6559 21.2143L 28.5484 21.2143C 28.9427 21.2143 29.2832 21.3286 29.5699 21.5571C 29.8566 21.7857 30 22.0571 30 22.3714L 30 28.8429C 30 29.1571 29.8566 29.4286 29.5699 29.6571C 29.2832 29.8857 28.9427 30 28.5484 30L 1.45161 30Z"/>
<path id="path5_fill" d="M 36.1101 9.83936C 35.4627 9.52393 34.7156 9.19189 33.8689 8.84326C 33.0222 8.47803 32.0511 8.1543 30.9554 7.87207C 29.8763 7.58984 28.656 7.35742 27.2947 7.1748C 25.9334 6.97559 24.4226 6.87598 22.7625 6.87598C 20.7537 6.87598 18.9607 6.99219 17.3836 7.22461C 15.823 7.45703 14.4949 7.82227 13.3992 8.32031C 12.3201 8.80176 11.49 9.41602 10.909 10.1631C 10.3445 10.9102 10.0623 11.7983 10.0623 12.8276C 10.0623 13.6909 10.3279 14.4463 10.8592 15.0938C 11.407 15.7412 12.1375 16.314 13.0506 16.812C 13.9803 17.3101 15.0594 17.7666 16.2879 18.1816C 17.533 18.5801 18.8445 18.9619 20.2224 19.3271C 21.617 19.6758 23.0447 20.0327 24.5056 20.3979C 25.9832 20.7632 27.4109 21.1616 28.7888 21.5933C 30.1834 22.0083 31.4949 22.4814 32.7234 23.0127C 33.9685 23.5273 35.0476 24.1333 35.9607 24.8306C 36.8904 25.5278 37.6209 26.3247 38.1521 27.2212C 38.7 28.1177 38.9739 29.1553 38.9739 30.334C 38.9739 31.6123 38.7332 32.7329 38.2517 33.6958C 37.7703 34.6421 37.1145 35.4639 36.2845 36.1611C 35.471 36.8418 34.5081 37.4146 33.3958 37.8794C 32.3001 38.3276 31.1214 38.6846 29.8596 38.9502C 28.6145 39.2158 27.3196 39.3984 25.9749 39.498C 24.6468 39.6143 23.3352 39.6724 22.0403 39.6724C 19.0686 39.6724 16.3709 39.4565 13.9471 39.0249C 11.5398 38.5933 9.24051 38.0039 7.0491 37.2568L 7.0491 33.4468C 9.30692 34.7915 11.6892 35.7129 14.1961 36.2109C 16.7195 36.709 19.3675 36.958 22.1399 36.958C 24.0989 36.958 25.9085 36.8418 27.5686 36.6094C 29.2288 36.377 30.6648 36.0117 31.8767 35.5137C 33.0887 34.999 34.0266 34.335 34.6907 33.5215C 35.3714 32.708 35.7117 31.7119 35.7117 30.5332C 35.7117 29.5869 35.4378 28.7568 34.8899 28.043C 34.3587 27.3291 33.6282 26.7065 32.6985 26.1753C 31.7854 25.6274 30.7063 25.146 29.4612 24.731C 28.2327 24.3159 26.9295 23.9341 25.5515 23.5854C 24.1736 23.2202 22.7459 22.8716 21.2683 22.5396C 19.8074 22.1909 18.388 21.8174 17.01 21.4189C 15.6321 21.0205 14.3206 20.5723 13.0755 20.0742C 11.847 19.5762 10.7679 18.9951 9.83817 18.3311C 8.92508 17.6504 8.19461 16.8701 7.64676 15.9902C 7.11551 15.1104 6.84988 14.0894 6.84988 12.9272C 6.84988 11.7817 7.0657 10.769 7.49734 9.88916C 7.92899 8.99268 8.51834 8.2207 9.26541 7.57324C 10.0291 6.92578 10.9173 6.38623 11.93 5.95459C 12.9427 5.50635 14.0218 5.15771 15.1673 4.90869C 16.3294 4.64307 17.533 4.45215 18.7781 4.33594C 20.0232 4.21973 21.2517 4.16162 22.4637 4.16162C 23.7918 4.16162 25.0452 4.21973 26.2239 4.33594C 27.4192 4.45215 28.5647 4.60986 29.6604 4.80908C 30.7727 4.9917 31.8518 5.20752 32.8977 5.45654C 33.9602 5.70557 35.031 5.97119 36.1101 6.25342L 36.1101 9.83936ZM 95.1217 7.62305L 95.1217 39L 92.0338 39L 92.0338 7.62305L 76.4699 7.62305L 76.4699 4.78418L 110.686 4.78418L 110.686 7.62305L 95.1217 7.62305ZM 165.314 24.5068L 165.314 39L 162.202 39L 162.202 24.5068L 146.14 4.78418L 149.85 4.78418L 163.771 21.917L 177.641 4.78418L 181.376 4.78418L 165.314 24.5068ZM 221.637 39L 221.637 4.78418L 224.749 4.78418L 224.749 36.0864L 249.751 36.0864L 249.751 39L 221.637 39Z"/>
</defs>
</svg>
