<svg width="1517" height="261" viewBox="0 0 1517 261" fill="none" xmlns="http://www.w3.org/2000/svg">
<rect width="1513" height="260" fill="black" fill-opacity="0" transform="translate(4 1)"/>
<path d="M246.329 57.9H250.589V202.953H339.41V207H246.329V57.9ZM469.144 202.953V207H369.886V57.9H465.949V61.947H374.146V129.255H456.364V133.302H374.146V202.953H469.144ZM602.688 162.057H511.524L490.65 207H485.751L554.976 57.9H559.236L628.461 207H623.562L602.688 162.057ZM600.771 158.01L557.106 63.651L513.441 158.01H600.771ZM663.068 61.947V133.515H745.286V137.562H663.068V207H658.808V57.9H754.871V61.947H663.068ZM872.428 130.533C897.42 133.941 909.916 146.437 909.916 168.021C909.916 180.659 905.372 190.315 896.284 196.989C887.338 203.663 873.919 207 856.027 207H792.766V57.9H851.767C867.387 57.9 879.599 61.166 888.403 67.698C897.349 74.088 901.822 83.389 901.822 95.601C901.822 104.973 899.195 112.641 893.941 118.605C888.829 124.427 881.658 128.403 872.428 130.533ZM797.026 61.947V129.255H852.619C866.961 129.255 878.037 126.415 885.847 120.735C893.657 114.913 897.562 106.535 897.562 95.601C897.562 84.667 893.657 76.36 885.847 70.68C878.037 64.858 866.961 61.947 852.619 61.947H797.026ZM856.879 202.953C889.397 202.953 905.656 191.309 905.656 168.021C905.656 156.235 901.538 147.502 893.302 141.822C885.208 136.142 873.067 133.302 856.879 133.302H797.026V202.953H856.879ZM1042.62 162.057H951.461L930.587 207H925.688L994.913 57.9H999.173L1068.4 207H1063.5L1042.62 162.057ZM1040.71 158.01L997.043 63.651L953.378 158.01H1040.71ZM1135.17 207.639C1124.38 207.639 1114.22 205.722 1104.71 201.888C1095.2 197.912 1087.88 192.8 1082.77 186.552L1085.75 183.783C1090.58 189.463 1097.47 194.22 1106.41 198.054C1115.36 201.746 1124.87 203.592 1134.96 203.592C1150.43 203.592 1162.08 200.539 1169.89 194.433C1177.84 188.185 1181.82 180.162 1181.82 170.364C1181.82 162.696 1179.76 156.59 1175.64 152.046C1171.52 147.502 1166.41 144.094 1160.3 141.822C1154.34 139.55 1146.24 137.207 1136.02 134.793C1125.09 132.095 1116.42 129.539 1110.03 127.125C1103.64 124.569 1098.18 120.735 1093.63 115.623C1089.23 110.369 1087.03 103.411 1087.03 94.749C1087.03 87.933 1088.81 81.685 1092.36 76.005C1095.91 70.325 1101.44 65.781 1108.97 62.373C1116.5 58.965 1125.8 57.261 1136.87 57.261C1144.82 57.261 1152.63 58.539 1160.3 61.095C1167.97 63.509 1174.57 66.775 1180.11 70.893L1177.77 74.301C1171.95 70.041 1165.41 66.846 1158.17 64.716C1151.07 62.444 1144.04 61.308 1137.09 61.308C1122.18 61.308 1110.82 64.503 1103.01 70.893C1095.2 77.141 1091.29 85.164 1091.29 94.962C1091.29 102.63 1093.35 108.807 1097.47 113.493C1101.59 118.037 1106.7 121.445 1112.8 123.717C1118.91 125.989 1127.15 128.403 1137.51 130.959C1148.3 133.657 1156.89 136.284 1163.28 138.84C1169.67 141.254 1175.07 145.017 1179.47 150.129C1183.87 155.099 1186.08 161.844 1186.08 170.364C1186.08 177.18 1184.23 183.428 1180.54 189.108C1176.85 194.788 1171.17 199.332 1163.5 202.74C1155.97 206.006 1146.53 207.639 1135.17 207.639ZM1325.93 202.953V207H1226.67V57.9H1322.73V61.947H1230.93V129.255H1313.15V133.302H1230.93V202.953H1325.93ZM1368.95 57.9H1425.39C1440.87 57.9 1454.5 61.095 1466.29 67.485C1478.22 73.875 1487.45 82.75 1493.98 94.11C1500.65 105.47 1503.99 118.25 1503.99 132.45C1503.99 146.65 1500.65 159.43 1493.98 170.79C1487.45 182.15 1478.22 191.025 1466.29 197.415C1454.5 203.805 1440.87 207 1425.39 207H1368.95V57.9ZM1424.97 202.953C1439.88 202.953 1452.94 199.971 1464.16 194.007C1475.52 187.901 1484.25 179.523 1490.36 168.873C1496.61 158.081 1499.73 145.94 1499.73 132.45C1499.73 118.96 1496.61 106.89 1490.36 96.24C1484.25 85.448 1475.52 77.07 1464.16 71.106C1452.94 65 1439.88 61.947 1424.97 61.947H1373.21V202.953H1424.97Z" fill="white"/>
<path d="M246.329 57.9V55.6H244.029V57.9H246.329ZM250.589 57.9H252.889V55.6H250.589V57.9ZM250.589 202.953H248.289V205.253H250.589V202.953ZM339.41 202.953H341.71V200.653H339.41V202.953ZM339.41 207V209.3H341.71V207H339.41ZM246.329 207H244.029V209.3H246.329V207ZM246.329 60.2H250.589V55.6H246.329V60.2ZM248.289 57.9V202.953H252.889V57.9H248.289ZM250.589 205.253H339.41V200.653H250.589V205.253ZM337.11 202.953V207H341.71V202.953H337.11ZM339.41 204.7H246.329V209.3H339.41V204.7ZM248.629 207V57.9H244.029V207H248.629ZM469.144 202.953H471.444V200.653H469.144V202.953ZM469.144 207V209.3H471.444V207H469.144ZM369.886 207H367.586V209.3H369.886V207ZM369.886 57.9V55.6H367.586V57.9H369.886ZM465.949 57.9H468.249V55.6H465.949V57.9ZM465.949 61.947V64.247H468.249V61.947H465.949ZM374.146 61.947V59.647H371.846V61.947H374.146ZM374.146 129.255H371.846V131.555H374.146V129.255ZM456.364 129.255H458.664V126.955H456.364V129.255ZM456.364 133.302V135.602H458.664V133.302H456.364ZM374.146 133.302V131.002H371.846V133.302H374.146ZM374.146 202.953H371.846V205.253H374.146V202.953ZM466.844 202.953V207H471.444V202.953H466.844ZM469.144 204.7H369.886V209.3H469.144V204.7ZM372.186 207V57.9H367.586V207H372.186ZM369.886 60.2H465.949V55.6H369.886V60.2ZM463.649 57.9V61.947H468.249V57.9H463.649ZM465.949 59.647H374.146V64.247H465.949V59.647ZM371.846 61.947V129.255H376.446V61.947H371.846ZM374.146 131.555H456.364V126.955H374.146V131.555ZM454.064 129.255V133.302H458.664V129.255H454.064ZM456.364 131.002H374.146V135.602H456.364V131.002ZM371.846 133.302V202.953H376.446V133.302H371.846ZM374.146 205.253H469.144V200.653H374.146V205.253ZM602.688 162.057L604.774 161.088L604.156 159.757H602.688V162.057ZM511.524 162.057V159.757H510.056L509.438 161.088L511.524 162.057ZM490.65 207V209.3H492.118L492.736 207.969L490.65 207ZM485.751 207L483.665 206.031L482.147 209.3H485.751V207ZM554.976 57.9V55.6H553.508L552.89 56.9314L554.976 57.9ZM559.236 57.9L561.322 56.9314L560.704 55.6H559.236V57.9ZM628.461 207V209.3H632.065L630.547 206.031L628.461 207ZM623.562 207L621.476 207.969L622.094 209.3H623.562V207ZM600.771 158.01V160.31H604.37L602.858 157.044L600.771 158.01ZM557.106 63.651L559.193 62.6851L557.106 58.1744L555.019 62.6851L557.106 63.651ZM513.441 158.01L511.354 157.044L509.842 160.31H513.441V158.01ZM602.688 159.757H511.524V164.357H602.688V159.757ZM509.438 161.088L488.564 206.031L492.736 207.969L513.61 163.026L509.438 161.088ZM490.65 204.7H485.751V209.3H490.65V204.7ZM487.837 207.969L557.062 58.8686L552.89 56.9314L483.665 206.031L487.837 207.969ZM554.976 60.2H559.236V55.6H554.976V60.2ZM557.15 58.8686L626.375 207.969L630.547 206.031L561.322 56.9314L557.15 58.8686ZM628.461 204.7H623.562V209.3H628.461V204.7ZM625.648 206.031L604.774 161.088L600.602 163.026L621.476 207.969L625.648 206.031ZM602.858 157.044L559.193 62.6851L555.019 64.6169L598.684 158.976L602.858 157.044ZM555.019 62.6851L511.354 157.044L515.528 158.976L559.193 64.6169L555.019 62.6851ZM513.441 160.31H600.771V155.71H513.441V160.31ZM663.068 61.947V59.647H660.768V61.947H663.068ZM663.068 133.515H660.768V135.815H663.068V133.515ZM745.286 133.515H747.586V131.215H745.286V133.515ZM745.286 137.562V139.862H747.586V137.562H745.286ZM663.068 137.562V135.262H660.768V137.562H663.068ZM663.068 207V209.3H665.368V207H663.068ZM658.808 207H656.508V209.3H658.808V207ZM658.808 57.9V55.6H656.508V57.9H658.808ZM754.871 57.9H757.171V55.6H754.871V57.9ZM754.871 61.947V64.247H757.171V61.947H754.871ZM660.768 61.947V133.515H665.368V61.947H660.768ZM663.068 135.815H745.286V131.215H663.068V135.815ZM742.986 133.515V137.562H747.586V133.515H742.986ZM745.286 135.262H663.068V139.862H745.286V135.262ZM660.768 137.562V207H665.368V137.562H660.768ZM663.068 204.7H658.808V209.3H663.068V204.7ZM661.108 207V57.9H656.508V207H661.108ZM658.808 60.2H754.871V55.6H658.808V60.2ZM752.571 57.9V61.947H757.171V57.9H752.571ZM754.871 59.647H663.068V64.247H754.871V59.647ZM872.428 130.533L871.91 128.292L872.117 132.812L872.428 130.533ZM896.284 196.989L894.922 195.135L894.915 195.14L894.908 195.145L896.284 196.989ZM792.766 207H790.466V209.3H792.766V207ZM792.766 57.9V55.6H790.466V57.9H792.766ZM888.403 67.698L887.032 69.5451L887.049 69.5575L887.066 69.5696L888.403 67.698ZM893.941 118.605L892.215 117.085L892.212 117.087L893.941 118.605ZM797.026 61.947V59.647H794.726V61.947H797.026ZM797.026 129.255H794.726V131.555H797.026V129.255ZM885.847 120.735L887.199 122.595L887.21 122.587L887.221 122.579L885.847 120.735ZM885.847 70.68L884.472 72.524L884.483 72.5321L884.494 72.5401L885.847 70.68ZM893.302 141.822L891.98 143.705L891.988 143.71L891.996 143.715L893.302 141.822ZM797.026 133.302V131.002H794.726V133.302H797.026ZM797.026 202.953H794.726V205.253H797.026V202.953ZM872.117 132.812C884.321 134.476 893.148 138.318 898.917 144.087C904.642 149.812 907.616 157.695 907.616 168.021H912.216C912.216 156.763 908.941 147.606 902.17 140.835C895.443 134.108 885.526 129.998 872.738 128.254L872.117 132.812ZM907.616 168.021C907.616 180.029 903.342 188.952 894.922 195.135L897.645 198.843C907.401 191.678 912.216 181.289 912.216 168.021H907.616ZM894.908 195.145C886.535 201.392 873.699 204.7 856.027 204.7V209.3C874.138 209.3 888.14 205.934 897.659 198.833L894.908 195.145ZM856.027 204.7H792.766V209.3H856.027V204.7ZM795.066 207V57.9H790.466V207H795.066ZM792.766 60.2H851.767V55.6H792.766V60.2ZM851.767 60.2C867.096 60.2 878.761 63.4087 887.032 69.5451L889.773 65.8509C880.436 58.9233 867.677 55.6 851.767 55.6V60.2ZM887.066 69.5696C895.333 75.4751 899.522 84.0362 899.522 95.601H904.122C904.122 82.7418 899.364 72.7009 889.739 65.8264L887.066 69.5696ZM899.522 95.601C899.522 104.519 897.034 111.614 892.215 117.085L895.666 120.125C901.355 113.668 904.122 105.427 904.122 95.601H899.522ZM892.212 117.087C887.483 122.473 880.777 126.246 871.91 128.292L872.945 132.774C882.538 130.56 890.174 126.381 895.669 120.123L892.212 117.087ZM794.726 61.947V129.255H799.326V61.947H794.726ZM797.026 131.555H852.619V126.955H797.026V131.555ZM852.619 131.555C867.222 131.555 878.847 128.669 887.199 122.595L884.494 118.875C877.226 124.161 866.699 126.955 852.619 126.955V131.555ZM887.221 122.579C895.691 116.265 899.862 107.159 899.862 95.601H895.262C895.262 105.911 891.622 113.561 884.472 118.891L887.221 122.579ZM899.862 95.601C899.862 84.0431 895.69 74.9946 887.199 68.8199L884.494 72.5401C891.623 77.7254 895.262 85.2909 895.262 95.601H899.862ZM887.221 68.836C878.866 62.6075 867.232 59.647 852.619 59.647V64.247C866.689 64.247 877.207 67.1086 884.472 72.524L887.221 68.836ZM852.619 59.647H797.026V64.247H852.619V59.647ZM856.879 205.253C873.343 205.253 886.104 202.318 894.8 196.09C903.638 189.761 907.956 180.267 907.956 168.021H903.356C903.356 179.063 899.543 187.035 892.122 192.35C884.559 197.766 872.932 200.653 856.879 200.653V205.253ZM907.956 168.021C907.956 155.633 903.583 146.119 894.607 139.929L891.996 143.715C899.492 148.885 903.356 156.837 903.356 168.021H907.956ZM894.623 139.939C885.966 133.864 873.265 131.002 856.879 131.002V135.602C872.868 135.602 884.45 138.42 891.98 143.705L894.623 139.939ZM856.879 131.002H797.026V135.602H856.879V131.002ZM794.726 133.302V202.953H799.326V133.302H794.726ZM797.026 205.253H856.879V200.653H797.026V205.253ZM1042.62 162.057L1044.71 161.088L1044.09 159.757H1042.62V162.057ZM951.461 162.057V159.757H949.993L949.375 161.088L951.461 162.057ZM930.587 207V209.3H932.054L932.672 207.969L930.587 207ZM925.688 207L923.601 206.031L922.084 209.3H925.688V207ZM994.913 57.9V55.6H993.445L992.826 56.9314L994.913 57.9ZM999.173 57.9L1001.26 56.9314L1000.64 55.6H999.173V57.9ZM1068.4 207V209.3H1072L1070.48 206.031L1068.4 207ZM1063.5 207L1061.41 207.969L1062.03 209.3H1063.5V207ZM1040.71 158.01V160.31H1044.31L1042.79 157.044L1040.71 158.01ZM997.043 63.651L999.13 62.6851L997.043 58.1744L994.955 62.6851L997.043 63.651ZM953.378 158.01L951.29 157.044L949.779 160.31H953.378V158.01ZM1042.62 159.757H951.461V164.357H1042.62V159.757ZM949.375 161.088L928.501 206.031L932.672 207.969L953.546 163.026L949.375 161.088ZM930.587 204.7H925.688V209.3H930.587V204.7ZM927.774 207.969L996.999 58.8686L992.826 56.9314L923.601 206.031L927.774 207.969ZM994.913 60.2H999.173V55.6H994.913V60.2ZM997.086 58.8686L1066.31 207.969L1070.48 206.031L1001.26 56.9314L997.086 58.8686ZM1068.4 204.7H1063.5V209.3H1068.4V204.7ZM1065.58 206.031L1044.71 161.088L1040.54 163.026L1061.41 207.969L1065.58 206.031ZM1042.79 157.044L999.13 62.6851L994.955 64.6169L1038.62 158.976L1042.79 157.044ZM994.955 62.6851L951.29 157.044L955.465 158.976L999.13 64.6169L994.955 62.6851ZM953.378 160.31H1040.71V155.71H953.378V160.31ZM1104.71 201.888L1103.82 204.01L1103.84 204.016L1103.85 204.021L1104.71 201.888ZM1082.77 186.552L1081.2 184.867L1079.62 186.337L1080.99 188.008L1082.77 186.552ZM1085.75 183.783L1087.5 182.293L1085.95 180.462L1084.19 182.098L1085.75 183.783ZM1106.41 198.054L1105.51 200.168L1105.52 200.174L1105.54 200.18L1106.41 198.054ZM1169.89 194.433L1171.3 196.245L1171.31 196.242L1169.89 194.433ZM1175.64 152.046L1173.93 153.59L1173.93 153.59L1175.64 152.046ZM1160.3 141.822L1159.48 143.971L1159.49 143.974L1159.5 143.978L1160.3 141.822ZM1136.02 134.793L1135.47 137.026L1135.48 137.029L1135.49 137.031L1136.02 134.793ZM1110.03 127.125L1109.18 129.26L1109.2 129.269L1109.22 129.277L1110.03 127.125ZM1093.63 115.623L1091.87 117.1L1091.89 117.126L1091.91 117.151L1093.63 115.623ZM1092.36 76.005L1090.4 74.786L1090.4 74.786L1092.36 76.005ZM1108.97 62.373L1108.02 60.2778L1108.02 60.2778L1108.97 62.373ZM1160.3 61.095L1159.57 63.277L1159.59 63.2831L1159.61 63.2889L1160.3 61.095ZM1180.11 70.893L1182.01 72.196L1183.26 70.3698L1181.48 69.0473L1180.11 70.893ZM1177.77 74.301L1176.41 76.1572L1178.32 77.5559L1179.66 75.604L1177.77 74.301ZM1158.17 64.716L1157.47 66.9066L1157.5 66.9149L1157.52 66.9225L1158.17 64.716ZM1103.01 70.893L1104.44 72.689L1104.45 72.6811L1104.46 72.6731L1103.01 70.893ZM1097.47 113.493L1095.74 115.011L1095.75 115.024L1095.76 115.037L1097.47 113.493ZM1137.51 130.959L1138.07 128.728L1138.06 128.726L1137.51 130.959ZM1163.28 138.84L1162.43 140.975L1162.45 140.984L1162.47 140.992L1163.28 138.84ZM1179.47 150.129L1177.73 151.63L1177.74 151.642L1177.75 151.654L1179.47 150.129ZM1180.54 189.108L1182.47 190.361L1182.47 190.361L1180.54 189.108ZM1163.5 202.74L1164.41 204.85L1164.42 204.846L1164.43 204.842L1163.5 202.74ZM1135.17 205.339C1124.66 205.339 1114.8 203.473 1105.57 199.755L1103.85 204.021C1113.65 207.971 1124.1 209.939 1135.17 209.939V205.339ZM1105.6 199.766C1096.34 195.896 1089.37 190.982 1084.55 185.096L1080.99 188.008C1086.4 194.618 1094.05 199.928 1103.82 204.01L1105.6 199.766ZM1084.34 188.237L1087.32 185.468L1084.19 182.098L1081.2 184.867L1084.34 188.237ZM1084 185.273C1089.12 191.293 1096.33 196.235 1105.51 200.168L1107.32 195.94C1098.6 192.205 1092.04 187.633 1087.5 182.293L1084 185.273ZM1105.54 200.18C1114.77 203.992 1124.58 205.892 1134.96 205.892V201.292C1125.16 201.292 1115.95 199.5 1107.29 195.928L1105.54 200.18ZM1134.96 205.892C1150.68 205.892 1162.92 202.801 1171.3 196.245L1168.47 192.621C1161.24 198.277 1150.19 201.292 1134.96 201.292V205.892ZM1171.31 196.242C1179.79 189.574 1184.12 180.894 1184.12 170.364H1179.52C1179.52 179.43 1175.88 186.796 1168.47 192.624L1171.31 196.242ZM1184.12 170.364C1184.12 162.274 1181.93 155.567 1177.34 150.502L1173.93 153.59C1177.58 157.613 1179.52 163.118 1179.52 170.364H1184.12ZM1177.34 150.502C1172.96 145.667 1167.53 142.059 1161.1 139.666L1159.5 143.978C1165.28 146.129 1170.08 149.337 1173.93 153.59L1177.34 150.502ZM1161.12 139.673C1155.02 137.349 1146.82 134.979 1136.55 132.555L1135.49 137.031C1145.67 139.435 1153.65 141.751 1159.48 143.971L1161.12 139.673ZM1136.57 132.56C1125.68 129.872 1117.11 127.341 1110.85 124.973L1109.22 129.277C1115.73 131.737 1124.5 134.318 1135.47 137.026L1136.57 132.56ZM1110.89 124.99C1104.83 122.565 1099.66 118.938 1095.35 114.095L1091.91 117.151C1096.7 122.532 1102.46 126.573 1109.18 129.26L1110.89 124.99ZM1095.4 114.146C1091.42 109.406 1089.33 103.017 1089.33 94.749H1084.73C1084.73 103.805 1087.04 111.332 1091.87 117.1L1095.4 114.146ZM1089.33 94.749C1089.33 88.356 1090.99 82.5317 1094.31 77.224L1090.4 74.786C1086.62 80.8383 1084.73 87.5099 1084.73 94.749H1089.33ZM1094.31 77.224C1097.56 72.0097 1102.71 67.7331 1109.92 64.4682L1108.02 60.2778C1100.18 63.8289 1094.25 68.6403 1090.4 74.786L1094.31 77.224ZM1109.92 64.4682C1117.06 61.2329 1126.02 59.561 1136.87 59.561V54.961C1125.57 54.961 1115.93 56.6971 1108.02 60.2778L1109.92 64.4682ZM1136.87 59.561C1144.57 59.561 1152.14 60.7978 1159.57 63.277L1161.03 58.913C1153.13 56.2802 1145.08 54.961 1136.87 54.961V59.561ZM1159.61 63.2889C1167.07 65.6382 1173.44 68.7969 1178.74 72.7387L1181.48 69.0473C1175.71 64.7531 1168.87 61.3799 1160.99 58.9011L1159.61 63.2889ZM1178.22 69.59L1175.87 72.998L1179.66 75.604L1182.01 72.196L1178.22 69.59ZM1179.13 72.4448C1173.08 68.0208 1166.31 64.7109 1158.82 62.5095L1157.52 66.9225C1164.52 68.9811 1170.81 72.0612 1176.41 76.1572L1179.13 72.4448ZM1158.87 62.5254C1151.56 60.1861 1144.3 59.008 1137.09 59.008V63.608C1143.79 63.608 1150.58 64.7019 1157.47 66.9066L1158.87 62.5254ZM1137.09 59.008C1121.89 59.008 1109.93 62.2588 1101.55 69.1129L1104.46 72.6731C1111.7 66.7472 1122.46 63.608 1137.09 63.608V59.008ZM1101.57 69.097C1093.23 75.7709 1088.99 84.4486 1088.99 94.962H1093.59C1093.59 85.8794 1097.16 78.5111 1104.44 72.689L1101.57 69.097ZM1088.99 94.962C1088.99 103.055 1091.17 109.815 1095.74 115.011L1099.19 111.975C1095.53 107.799 1093.59 102.205 1093.59 94.962H1088.99ZM1095.76 115.037C1100.14 119.872 1105.57 123.48 1112 125.873L1113.61 121.561C1107.82 119.41 1103.03 116.202 1099.17 111.949L1095.76 115.037ZM1112 125.873C1118.22 128.188 1126.56 130.627 1136.96 133.192L1138.06 128.726C1127.73 126.179 1119.59 123.79 1113.61 121.561L1112 125.873ZM1136.95 133.19C1147.7 135.876 1156.18 138.474 1162.43 140.975L1164.14 136.705C1157.61 134.094 1148.91 131.438 1138.07 128.728L1136.95 133.19ZM1162.47 140.992C1168.51 143.272 1173.58 146.813 1177.73 151.63L1181.21 148.628C1176.56 143.221 1170.84 139.236 1164.1 136.688L1162.47 140.992ZM1177.75 151.654C1181.68 156.095 1183.78 162.242 1183.78 170.364H1188.38C1188.38 161.446 1186.06 154.103 1181.19 148.604L1177.75 151.654ZM1183.78 170.364C1183.78 176.738 1182.06 182.55 1178.61 187.855L1182.47 190.361C1186.4 184.306 1188.38 177.622 1188.38 170.364H1183.78ZM1178.61 187.855C1175.21 193.081 1169.92 197.368 1162.56 200.638L1164.43 204.842C1172.41 201.296 1178.48 196.495 1182.47 190.361L1178.61 187.855ZM1162.58 200.63C1155.43 203.732 1146.33 205.339 1135.17 205.339V209.939C1146.73 209.939 1156.51 208.28 1164.41 204.85L1162.58 200.63ZM1325.93 202.953H1328.23V200.653H1325.93V202.953ZM1325.93 207V209.3H1328.23V207H1325.93ZM1226.67 207H1224.37V209.3H1226.67V207ZM1226.67 57.9V55.6H1224.37V57.9H1226.67ZM1322.73 57.9H1325.03V55.6H1322.73V57.9ZM1322.73 61.947V64.247H1325.03V61.947H1322.73ZM1230.93 61.947V59.647H1228.63V61.947H1230.93ZM1230.93 129.255H1228.63V131.555H1230.93V129.255ZM1313.15 129.255H1315.45V126.955H1313.15V129.255ZM1313.15 133.302V135.602H1315.45V133.302H1313.15ZM1230.93 133.302V131.002H1228.63V133.302H1230.93ZM1230.93 202.953H1228.63V205.253H1230.93V202.953ZM1323.63 202.953V207H1328.23V202.953H1323.63ZM1325.93 204.7H1226.67V209.3H1325.93V204.7ZM1228.97 207V57.9H1224.37V207H1228.97ZM1226.67 60.2H1322.73V55.6H1226.67V60.2ZM1320.43 57.9V61.947H1325.03V57.9H1320.43ZM1322.73 59.647H1230.93V64.247H1322.73V59.647ZM1228.63 61.947V129.255H1233.23V61.947H1228.63ZM1230.93 131.555H1313.15V126.955H1230.93V131.555ZM1310.85 129.255V133.302H1315.45V129.255H1310.85ZM1313.15 131.002H1230.93V135.602H1313.15V131.002ZM1228.63 133.302V202.953H1233.23V133.302H1228.63ZM1230.93 205.253H1325.93V200.653H1230.93V205.253ZM1368.95 57.9V55.6H1366.65V57.9H1368.95ZM1466.29 67.485L1465.19 69.507L1465.2 69.5124L1466.29 67.485ZM1493.98 94.11L1491.98 95.2565L1491.99 95.2658L1492 95.2751L1493.98 94.11ZM1493.98 170.79L1492 169.625L1491.99 169.634L1491.98 169.644L1493.98 170.79ZM1466.29 197.415L1465.2 195.388L1465.19 195.393L1466.29 197.415ZM1368.95 207H1366.65V209.3H1368.95V207ZM1464.16 194.007L1465.24 196.038L1465.25 196.033L1464.16 194.007ZM1490.36 168.873L1488.37 167.721L1488.36 167.729L1490.36 168.873ZM1490.36 96.24L1488.36 97.3726L1488.36 97.3883L1488.37 97.4038L1490.36 96.24ZM1464.16 71.106L1463.06 73.1261L1463.07 73.1344L1463.09 73.1424L1464.16 71.106ZM1373.21 61.947V59.647H1370.91V61.947H1373.21ZM1373.21 202.953H1370.91V205.253H1373.21V202.953ZM1368.95 60.2H1425.39V55.6H1368.95V60.2ZM1425.39 60.2C1440.55 60.2 1453.79 63.3259 1465.19 69.507L1467.38 65.4631C1455.21 58.8641 1441.19 55.6 1425.39 55.6V60.2ZM1465.2 69.5124C1476.76 75.7064 1485.67 84.2818 1491.98 95.2565L1495.97 92.9635C1489.22 81.2182 1479.67 72.0436 1467.37 65.4576L1465.2 69.5124ZM1492 95.2751C1498.45 106.254 1501.69 118.627 1501.69 132.45H1506.29C1506.29 117.873 1502.86 104.686 1495.96 92.9449L1492 95.2751ZM1501.69 132.45C1501.69 146.273 1498.45 158.646 1492 169.625L1495.96 171.955C1502.86 160.214 1506.29 147.027 1506.29 132.45H1501.69ZM1491.98 169.644C1485.67 180.618 1476.76 189.194 1465.2 195.388L1467.37 199.442C1479.67 192.856 1489.22 183.682 1495.97 171.936L1491.98 169.644ZM1465.19 195.393C1453.79 201.574 1440.55 204.7 1425.39 204.7V209.3C1441.19 209.3 1455.21 206.036 1467.38 199.437L1465.19 195.393ZM1425.39 204.7H1368.95V209.3H1425.39V204.7ZM1371.25 207V57.9H1366.65V207H1371.25ZM1424.97 205.253C1440.19 205.253 1453.63 202.207 1465.24 196.038L1463.08 191.976C1452.25 197.735 1439.57 200.653 1424.97 200.653V205.253ZM1465.25 196.033C1476.97 189.734 1486.02 181.059 1492.35 170.017L1488.36 167.729C1482.48 177.987 1474.07 186.068 1463.07 191.981L1465.25 196.033ZM1492.35 170.025C1498.81 158.855 1502.03 146.311 1502.03 132.45H1497.43C1497.43 145.569 1494.4 157.307 1488.37 167.721L1492.35 170.025ZM1502.03 132.45C1502.03 118.59 1498.81 106.111 1492.34 95.0762L1488.37 97.4038C1494.4 107.669 1497.43 119.33 1497.43 132.45H1502.03ZM1492.36 95.1074C1486.03 83.9169 1476.96 75.2315 1465.23 69.0696L1463.09 73.1424C1474.07 78.9085 1482.47 86.9791 1488.36 97.3726L1492.36 95.1074ZM1465.26 69.0859C1453.65 62.7676 1440.2 59.647 1424.97 59.647V64.247C1439.56 64.247 1452.23 67.2324 1463.06 73.1261L1465.26 69.0859ZM1424.97 59.647H1373.21V64.247H1424.97V59.647ZM1370.91 61.947V202.953H1375.51V61.947H1370.91ZM1373.21 205.253H1424.97V200.653H1373.21V205.253Z" fill="white"/>
<rect width="180" height="224" fill="black" fill-opacity="0" transform="translate(4 6)"/>
<path d="M17.8681 92.4162C31.0001 67.6284 76.8303 20.5922 93.7171 6C110.698 21.3503 157.513 67.401 170.698 92.4162C182.925 115.612 184.095 136.572 183.151 144.152C166.17 265.249 9.94358 248.761 4.8492 144.152C2.81147 124.14 12.6794 101.323 17.8681 92.4162Z" stroke="white" stroke-width="8"/>
<path d="M28 79.397L154 205M32.5 205L160 79" stroke="white" stroke-width="8"/>
</svg>
