<svg width="1506" height="232" viewBox="0 0 1506 232" version="1.1" xmlns="http://www.w3.org/2000/svg" xmlns:xlink="http://www.w3.org/1999/xlink">
<title>logo</title>
<desc>Created using Figma</desc>
<g id="Canvas" transform="translate(-13590 9758)">
<g id="logo">
<g id="LEAFBASED">
<use xlink:href="#path0_fill" transform="translate(13807 -9758)" fill="#FFFFFF"/>
<mask id="mask0_outline_out">
<rect id="mask0_outline_inv" fill="white" x="26" y="53" width="1263" height="156" transform="translate(13807 -9758)"/>
<use xlink:href="#path0_fill" fill="black" transform="translate(13807 -9758)"/>
</mask>
<g mask="url(#mask0_outline_out)">
<use xlink:href="#path1_stroke_2x" transform="translate(13807 -9758)" fill="#FFFFFF"/>
</g>
</g>
<g id="Group 2.3">
<g id="Vector">
<use xlink:href="#path2_stroke" transform="translate(13593.6 -9753)" fill="#FFFFFF"/>
</g>
<g id="Vector">
<use xlink:href="#path3_stroke" transform="translate(13617 -9680)" fill="#FFFFFF"/>
</g>
</g>
</g>
</g>
<defs>
<path id="path0_fill" d="M 28.329 56.9L 32.589 56.9L 32.589 201.953L 121.41 201.953L 121.41 206L 28.329 206L 28.329 56.9ZM 251.144 201.953L 251.144 206L 151.886 206L 151.886 56.9L 247.949 56.9L 247.949 60.947L 156.146 60.947L 156.146 128.255L 238.364 128.255L 238.364 132.302L 156.146 132.302L 156.146 201.953L 251.144 201.953ZM 384.688 161.057L 293.524 161.057L 272.65 206L 267.751 206L 336.976 56.9L 341.236 56.9L 410.461 206L 405.562 206L 384.688 161.057ZM 382.771 157.01L 339.106 62.651L 295.441 157.01L 382.771 157.01ZM 445.068 60.947L 445.068 132.515L 527.286 132.515L 527.286 136.562L 445.068 136.562L 445.068 206L 440.808 206L 440.808 56.9L 536.871 56.9L 536.871 60.947L 445.068 60.947ZM 654.428 129.533C 679.42 132.941 691.916 145.437 691.916 167.021C 691.916 179.659 687.372 189.315 678.284 195.989C 669.338 202.663 655.919 206 638.027 206L 574.766 206L 574.766 56.9L 633.767 56.9C 649.387 56.9 661.599 60.166 670.403 66.698C 679.349 73.088 683.822 82.389 683.822 94.601C 683.822 103.973 681.195 111.641 675.941 117.605C 670.829 123.427 663.658 127.403 654.428 129.533ZM 579.026 60.947L 579.026 128.255L 634.619 128.255C 648.961 128.255 660.037 125.415 667.847 119.735C 675.657 113.913 679.562 105.535 679.562 94.601C 679.562 83.667 675.657 75.36 667.847 69.68C 660.037 63.858 648.961 60.947 634.619 60.947L 579.026 60.947ZM 638.879 201.953C 671.397 201.953 687.656 190.309 687.656 167.021C 687.656 155.235 683.538 146.502 675.302 140.822C 667.208 135.142 655.067 132.302 638.879 132.302L 579.026 132.302L 579.026 201.953L 638.879 201.953ZM 824.625 161.057L 733.461 161.057L 712.587 206L 707.688 206L 776.913 56.9L 781.173 56.9L 850.398 206L 845.499 206L 824.625 161.057ZM 822.708 157.01L 779.043 62.651L 735.378 157.01L 822.708 157.01ZM 917.168 206.639C 906.376 206.639 896.223 204.722 886.709 200.888C 877.195 196.912 869.882 191.8 864.77 185.552L 867.752 182.783C 872.58 188.463 879.467 193.22 888.413 197.054C 897.359 200.746 906.873 202.592 916.955 202.592C 932.433 202.592 944.077 199.539 951.887 193.433C 959.839 187.185 963.815 179.162 963.815 169.364C 963.815 161.696 961.756 155.59 957.638 151.046C 953.52 146.502 948.408 143.094 942.302 140.822C 936.338 138.55 928.244 136.207 918.02 133.793C 907.086 131.095 898.424 128.539 892.034 126.125C 885.644 123.569 880.177 119.735 875.633 114.623C 871.231 109.369 869.03 102.411 869.03 93.749C 869.03 86.933 870.805 80.685 874.355 75.005C 877.905 69.325 883.443 64.781 890.969 61.373C 898.495 57.965 907.796 56.261 918.872 56.261C 926.824 56.261 934.634 57.539 942.302 60.095C 949.97 62.509 956.573 65.775 962.111 69.893L 959.768 73.301C 953.946 69.041 947.414 65.846 940.172 63.716C 933.072 61.444 926.043 60.308 919.085 60.308C 904.175 60.308 892.815 63.503 885.005 69.893C 877.195 76.141 873.29 84.164 873.29 93.962C 873.29 101.63 875.349 107.807 879.467 112.493C 883.585 117.037 888.697 120.445 894.803 122.717C 900.909 124.989 909.145 127.403 919.511 129.959C 930.303 132.657 938.894 135.284 945.284 137.84C 951.674 140.254 957.07 144.017 961.472 149.129C 965.874 154.099 968.075 160.844 968.075 169.364C 968.075 176.18 966.229 182.428 962.537 188.108C 958.845 193.788 953.165 198.332 945.497 201.74C 937.971 205.006 928.528 206.639 917.168 206.639ZM 1107.93 201.953L 1107.93 206L 1008.67 206L 1008.67 56.9L 1104.73 56.9L 1104.73 60.947L 1012.93 60.947L 1012.93 128.255L 1095.15 128.255L 1095.15 132.302L 1012.93 132.302L 1012.93 201.953L 1107.93 201.953ZM 1150.95 56.9L 1207.39 56.9C 1222.87 56.9 1236.5 60.095 1248.29 66.485C 1260.22 72.875 1269.45 81.75 1275.98 93.11C 1282.65 104.47 1285.99 117.25 1285.99 131.45C 1285.99 145.65 1282.65 158.43 1275.98 169.79C 1269.45 181.15 1260.22 190.025 1248.29 196.415C 1236.5 202.805 1222.87 206 1207.39 206L 1150.95 206L 1150.95 56.9ZM 1206.97 201.953C 1221.88 201.953 1234.94 198.971 1246.16 193.007C 1257.52 186.901 1266.25 178.523 1272.36 167.873C 1278.61 157.081 1281.73 144.94 1281.73 131.45C 1281.73 117.96 1278.61 105.89 1272.36 95.24C 1266.25 84.448 1257.52 76.07 1246.16 70.106C 1234.94 64 1221.88 60.947 1206.97 60.947L 1155.21 60.947L 1155.21 201.953L 1206.97 201.953Z"/>
<path id="path1_stroke_2x" d="M 28.329 56.9L 28.329 54.6L 26.029 54.6L 26.029 56.9L 28.329 56.9ZM 32.589 56.9L 34.889 56.9L 34.889 54.6L 32.589 54.6L 32.589 56.9ZM 32.589 201.953L 30.289 201.953L 30.289 204.253L 32.589 204.253L 32.589 201.953ZM 121.41 201.953L 123.71 201.953L 123.71 199.653L 121.41 199.653L 121.41 201.953ZM 121.41 206L 121.41 208.3L 123.71 208.3L 123.71 206L 121.41 206ZM 28.329 206L 26.029 206L 26.029 208.3L 28.329 208.3L 28.329 206ZM 28.329 59.2L 32.589 59.2L 32.589 54.6L 28.329 54.6L 28.329 59.2ZM 30.289 56.9L 30.289 201.953L 34.889 201.953L 34.889 56.9L 30.289 56.9ZM 32.589 204.253L 121.41 204.253L 121.41 199.653L 32.589 199.653L 32.589 204.253ZM 119.11 201.953L 119.11 206L 123.71 206L 123.71 201.953L 119.11 201.953ZM 121.41 203.7L 28.329 203.7L 28.329 208.3L 121.41 208.3L 121.41 203.7ZM 30.629 206L 30.629 56.9L 26.029 56.9L 26.029 206L 30.629 206ZM 251.144 201.953L 253.444 201.953L 253.444 199.653L 251.144 199.653L 251.144 201.953ZM 251.144 206L 251.144 208.3L 253.444 208.3L 253.444 206L 251.144 206ZM 151.886 206L 149.586 206L 149.586 208.3L 151.886 208.3L 151.886 206ZM 151.886 56.9L 151.886 54.6L 149.586 54.6L 149.586 56.9L 151.886 56.9ZM 247.949 56.9L 250.249 56.9L 250.249 54.6L 247.949 54.6L 247.949 56.9ZM 247.949 60.947L 247.949 63.247L 250.249 63.247L 250.249 60.947L 247.949 60.947ZM 156.146 60.947L 156.146 58.647L 153.846 58.647L 153.846 60.947L 156.146 60.947ZM 156.146 128.255L 153.846 128.255L 153.846 130.555L 156.146 130.555L 156.146 128.255ZM 238.364 128.255L 240.664 128.255L 240.664 125.955L 238.364 125.955L 238.364 128.255ZM 238.364 132.302L 238.364 134.602L 240.664 134.602L 240.664 132.302L 238.364 132.302ZM 156.146 132.302L 156.146 130.002L 153.846 130.002L 153.846 132.302L 156.146 132.302ZM 156.146 201.953L 153.846 201.953L 153.846 204.253L 156.146 204.253L 156.146 201.953ZM 248.844 201.953L 248.844 206L 253.444 206L 253.444 201.953L 248.844 201.953ZM 251.144 203.7L 151.886 203.7L 151.886 208.3L 251.144 208.3L 251.144 203.7ZM 154.186 206L 154.186 56.9L 149.586 56.9L 149.586 206L 154.186 206ZM 151.886 59.2L 247.949 59.2L 247.949 54.6L 151.886 54.6L 151.886 59.2ZM 245.649 56.9L 245.649 60.947L 250.249 60.947L 250.249 56.9L 245.649 56.9ZM 247.949 58.647L 156.146 58.647L 156.146 63.247L 247.949 63.247L 247.949 58.647ZM 153.846 60.947L 153.846 128.255L 158.446 128.255L 158.446 60.947L 153.846 60.947ZM 156.146 130.555L 238.364 130.555L 238.364 125.955L 156.146 125.955L 156.146 130.555ZM 236.064 128.255L 236.064 132.302L 240.664 132.302L 240.664 128.255L 236.064 128.255ZM 238.364 130.002L 156.146 130.002L 156.146 134.602L 238.364 134.602L 238.364 130.002ZM 153.846 132.302L 153.846 201.953L 158.446 201.953L 158.446 132.302L 153.846 132.302ZM 156.146 204.253L 251.144 204.253L 251.144 199.653L 156.146 199.653L 156.146 204.253ZM 384.688 161.057L 386.774 160.088L 386.156 158.757L 384.688 158.757L 384.688 161.057ZM 293.524 161.057L 293.524 158.757L 292.056 158.757L 291.438 160.088L 293.524 161.057ZM 272.65 206L 272.65 208.3L 274.118 208.3L 274.736 206.969L 272.65 206ZM 267.751 206L 265.665 205.031L 264.147 208.3L 267.751 208.3L 267.751 206ZM 336.976 56.9L 336.976 54.6L 335.508 54.6L 334.89 55.9314L 336.976 56.9ZM 341.236 56.9L 343.322 55.9314L 342.704 54.6L 341.236 54.6L 341.236 56.9ZM 410.461 206L 410.461 208.3L 414.065 208.3L 412.547 205.031L 410.461 206ZM 405.562 206L 403.476 206.969L 404.094 208.3L 405.562 208.3L 405.562 206ZM 382.771 157.01L 382.771 159.31L 386.37 159.31L 384.858 156.044L 382.771 157.01ZM 339.106 62.651L 341.193 61.6851L 339.106 57.1744L 337.019 61.6851L 339.106 62.651ZM 295.441 157.01L 293.354 156.044L 291.842 159.31L 295.441 159.31L 295.441 157.01ZM 384.688 158.757L 293.524 158.757L 293.524 163.357L 384.688 163.357L 384.688 158.757ZM 291.438 160.088L 270.564 205.031L 274.736 206.969L 295.61 162.026L 291.438 160.088ZM 272.65 203.7L 267.751 203.7L 267.751 208.3L 272.65 208.3L 272.65 203.7ZM 269.837 206.969L 339.062 57.8686L 334.89 55.9314L 265.665 205.031L 269.837 206.969ZM 336.976 59.2L 341.236 59.2L 341.236 54.6L 336.976 54.6L 336.976 59.2ZM 339.15 57.8686L 408.375 206.969L 412.547 205.031L 343.322 55.9314L 339.15 57.8686ZM 410.461 203.7L 405.562 203.7L 405.562 208.3L 410.461 208.3L 410.461 203.7ZM 407.648 205.031L 386.774 160.088L 382.602 162.026L 403.476 206.969L 407.648 205.031ZM 384.858 156.044L 341.193 61.6851L 337.019 63.6169L 380.684 157.976L 384.858 156.044ZM 337.019 61.6851L 293.354 156.044L 297.528 157.976L 341.193 63.6169L 337.019 61.6851ZM 295.441 159.31L 382.771 159.31L 382.771 154.71L 295.441 154.71L 295.441 159.31ZM 445.068 60.947L 445.068 58.647L 442.768 58.647L 442.768 60.947L 445.068 60.947ZM 445.068 132.515L 442.768 132.515L 442.768 134.815L 445.068 134.815L 445.068 132.515ZM 527.286 132.515L 529.586 132.515L 529.586 130.215L 527.286 130.215L 527.286 132.515ZM 527.286 136.562L 527.286 138.862L 529.586 138.862L 529.586 136.562L 527.286 136.562ZM 445.068 136.562L 445.068 134.262L 442.768 134.262L 442.768 136.562L 445.068 136.562ZM 445.068 206L 445.068 208.3L 447.368 208.3L 447.368 206L 445.068 206ZM 440.808 206L 438.508 206L 438.508 208.3L 440.808 208.3L 440.808 206ZM 440.808 56.9L 440.808 54.6L 438.508 54.6L 438.508 56.9L 440.808 56.9ZM 536.871 56.9L 539.171 56.9L 539.171 54.6L 536.871 54.6L 536.871 56.9ZM 536.871 60.947L 536.871 63.247L 539.171 63.247L 539.171 60.947L 536.871 60.947ZM 442.768 60.947L 442.768 132.515L 447.368 132.515L 447.368 60.947L 442.768 60.947ZM 445.068 134.815L 527.286 134.815L 527.286 130.215L 445.068 130.215L 445.068 134.815ZM 524.986 132.515L 524.986 136.562L 529.586 136.562L 529.586 132.515L 524.986 132.515ZM 527.286 134.262L 445.068 134.262L 445.068 138.862L 527.286 138.862L 527.286 134.262ZM 442.768 136.562L 442.768 206L 447.368 206L 447.368 136.562L 442.768 136.562ZM 445.068 203.7L 440.808 203.7L 440.808 208.3L 445.068 208.3L 445.068 203.7ZM 443.108 206L 443.108 56.9L 438.508 56.9L 438.508 206L 443.108 206ZM 440.808 59.2L 536.871 59.2L 536.871 54.6L 440.808 54.6L 440.808 59.2ZM 534.571 56.9L 534.571 60.947L 539.171 60.947L 539.171 56.9L 534.571 56.9ZM 536.871 58.647L 445.068 58.647L 445.068 63.247L 536.871 63.247L 536.871 58.647ZM 654.428 129.533L 653.91 127.292L 654.117 131.812L 654.428 129.533ZM 678.284 195.989L 676.922 194.135L 676.915 194.14L 676.908 194.145L 678.284 195.989ZM 574.766 206L 572.466 206L 572.466 208.3L 574.766 208.3L 574.766 206ZM 574.766 56.9L 574.766 54.6L 572.466 54.6L 572.466 56.9L 574.766 56.9ZM 670.403 66.698L 669.032 68.5451L 669.049 68.5575L 669.066 68.5696L 670.403 66.698ZM 675.941 117.605L 674.215 116.085L 674.212 116.087L 675.941 117.605ZM 579.026 60.947L 579.026 58.647L 576.726 58.647L 576.726 60.947L 579.026 60.947ZM 579.026 128.255L 576.726 128.255L 576.726 130.555L 579.026 130.555L 579.026 128.255ZM 667.847 119.735L 669.199 121.595L 669.21 121.587L 669.221 121.579L 667.847 119.735ZM 667.847 69.68L 666.472 71.524L 666.483 71.5321L 666.494 71.5401L 667.847 69.68ZM 675.302 140.822L 673.98 142.705L 673.988 142.71L 673.996 142.715L 675.302 140.822ZM 579.026 132.302L 579.026 130.002L 576.726 130.002L 576.726 132.302L 579.026 132.302ZM 579.026 201.953L 576.726 201.953L 576.726 204.253L 579.026 204.253L 579.026 201.953ZM 654.117 131.812C 666.321 133.476 675.148 137.318 680.917 143.087C 686.642 148.812 689.616 156.695 689.616 167.021L 694.216 167.021C 694.216 155.763 690.941 146.606 684.17 139.835C 677.443 133.108 667.526 128.998 654.738 127.254L 654.117 131.812ZM 689.616 167.021C 689.616 179.029 685.342 187.952 676.922 194.135L 679.645 197.843C 689.401 190.678 694.216 180.289 694.216 167.021L 689.616 167.021ZM 676.908 194.145C 668.535 200.392 655.699 203.7 638.027 203.7L 638.027 208.3C 656.138 208.3 670.14 204.934 679.659 197.833L 676.908 194.145ZM 638.027 203.7L 574.766 203.7L 574.766 208.3L 638.027 208.3L 638.027 203.7ZM 577.066 206L 577.066 56.9L 572.466 56.9L 572.466 206L 577.066 206ZM 574.766 59.2L 633.767 59.2L 633.767 54.6L 574.766 54.6L 574.766 59.2ZM 633.767 59.2C 649.096 59.2 660.761 62.4087 669.032 68.5451L 671.773 64.8509C 662.436 57.9233 649.677 54.6 633.767 54.6L 633.767 59.2ZM 669.066 68.5696C 677.333 74.4751 681.522 83.0362 681.522 94.601L 686.122 94.601C 686.122 81.7418 681.364 71.7009 671.739 64.8264L 669.066 68.5696ZM 681.522 94.601C 681.522 103.519 679.034 110.614 674.215 116.085L 677.666 119.125C 683.355 112.668 686.122 104.427 686.122 94.601L 681.522 94.601ZM 674.212 116.087C 669.483 121.473 662.777 125.246 653.91 127.292L 654.945 131.774C 664.538 129.56 672.174 125.381 677.669 119.123L 674.212 116.087ZM 576.726 60.947L 576.726 128.255L 581.326 128.255L 581.326 60.947L 576.726 60.947ZM 579.026 130.555L 634.619 130.555L 634.619 125.955L 579.026 125.955L 579.026 130.555ZM 634.619 130.555C 649.222 130.555 660.847 127.669 669.199 121.595L 666.494 117.875C 659.226 123.161 648.699 125.955 634.619 125.955L 634.619 130.555ZM 669.221 121.579C 677.691 115.265 681.862 106.159 681.862 94.601L 677.262 94.601C 677.262 104.911 673.622 112.561 666.472 117.891L 669.221 121.579ZM 681.862 94.601C 681.862 83.0431 677.69 73.9946 669.199 67.8199L 666.494 71.5401C 673.623 76.7254 677.262 84.2909 677.262 94.601L 681.862 94.601ZM 669.221 67.836C 660.866 61.6075 649.232 58.647 634.619 58.647L 634.619 63.247C 648.689 63.247 659.207 66.1085 666.472 71.524L 669.221 67.836ZM 634.619 58.647L 579.026 58.647L 579.026 63.247L 634.619 63.247L 634.619 58.647ZM 638.879 204.253C 655.343 204.253 668.104 201.318 676.8 195.09C 685.638 188.761 689.956 179.267 689.956 167.021L 685.356 167.021C 685.356 178.063 681.543 186.035 674.122 191.35C 666.559 196.766 654.932 199.653 638.879 199.653L 638.879 204.253ZM 689.956 167.021C 689.956 154.633 685.583 145.119 676.607 138.929L 673.996 142.715C 681.492 147.885 685.356 155.837 685.356 167.021L 689.956 167.021ZM 676.623 138.939C 667.966 132.864 655.265 130.002 638.879 130.002L 638.879 134.602C 654.868 134.602 666.45 137.42 673.98 142.705L 676.623 138.939ZM 638.879 130.002L 579.026 130.002L 579.026 134.602L 638.879 134.602L 638.879 130.002ZM 576.726 132.302L 576.726 201.953L 581.326 201.953L 581.326 132.302L 576.726 132.302ZM 579.026 204.253L 638.879 204.253L 638.879 199.653L 579.026 199.653L 579.026 204.253ZM 824.625 161.057L 826.71 160.088L 826.092 158.757L 824.625 158.757L 824.625 161.057ZM 733.461 161.057L 733.461 158.757L 731.993 158.757L 731.375 160.088L 733.461 161.057ZM 712.587 206L 712.587 208.3L 714.054 208.3L 714.672 206.969L 712.587 206ZM 707.688 206L 705.601 205.031L 704.084 208.3L 707.688 208.3L 707.688 206ZM 776.913 56.9L 776.913 54.6L 775.445 54.6L 774.826 55.9314L 776.913 56.9ZM 781.173 56.9L 783.259 55.9314L 782.64 54.6L 781.173 54.6L 781.173 56.9ZM 850.398 206L 850.398 208.3L 854.001 208.3L 852.484 205.031L 850.398 206ZM 845.499 206L 843.413 206.969L 844.031 208.3L 845.499 208.3L 845.499 206ZM 822.708 157.01L 822.708 159.31L 826.306 159.31L 824.795 156.044L 822.708 157.01ZM 779.043 62.651L 781.13 61.6851L 779.043 57.1744L 776.955 61.6851L 779.043 62.651ZM 735.378 157.01L 733.29 156.044L 731.779 159.31L 735.378 159.31L 735.378 157.01ZM 824.625 158.757L 733.461 158.757L 733.461 163.357L 824.625 163.357L 824.625 158.757ZM 731.375 160.088L 710.501 205.031L 714.672 206.969L 735.546 162.026L 731.375 160.088ZM 712.587 203.7L 707.688 203.7L 707.688 208.3L 712.587 208.3L 712.587 203.7ZM 709.774 206.969L 778.999 57.8686L 774.826 55.9314L 705.601 205.031L 709.774 206.969ZM 776.913 59.2L 781.173 59.2L 781.173 54.6L 776.913 54.6L 776.913 59.2ZM 779.086 57.8686L 848.311 206.969L 852.484 205.031L 783.259 55.9314L 779.086 57.8686ZM 850.398 203.7L 845.499 203.7L 845.499 208.3L 850.398 208.3L 850.398 203.7ZM 847.584 205.031L 826.71 160.088L 822.539 162.026L 843.413 206.969L 847.584 205.031ZM 824.795 156.044L 781.13 61.6851L 776.955 63.6169L 820.62 157.976L 824.795 156.044ZM 776.955 61.6851L 733.29 156.044L 737.465 157.976L 781.13 63.6169L 776.955 61.6851ZM 735.378 159.31L 822.708 159.31L 822.708 154.71L 735.378 154.71L 735.378 159.31ZM 886.709 200.888L 885.822 203.01L 885.836 203.016L 885.849 203.021L 886.709 200.888ZM 864.77 185.552L 863.205 183.867L 861.622 185.337L 862.99 187.008L 864.77 185.552ZM 867.752 182.783L 869.504 181.293L 867.948 179.462L 866.187 181.098L 867.752 182.783ZM 888.413 197.054L 887.507 199.168L 887.521 199.174L 887.536 199.18L 888.413 197.054ZM 951.887 193.433L 953.304 195.245L 953.308 195.242L 951.887 193.433ZM 942.302 140.822L 941.483 142.971L 941.492 142.974L 941.5 142.978L 942.302 140.822ZM 918.02 133.793L 917.469 136.026L 917.48 136.029L 917.491 136.031L 918.02 133.793ZM 892.034 126.125L 891.18 128.26L 891.2 128.269L 891.221 128.277L 892.034 126.125ZM 875.633 114.623L 873.87 116.1L 873.892 116.126L 873.914 116.151L 875.633 114.623ZM 874.355 75.005L 876.305 76.224L 874.355 75.005ZM 942.302 60.095L 941.575 62.277L 941.593 62.2831L 941.611 62.2889L 942.302 60.095ZM 962.111 69.893L 964.006 71.196L 965.262 69.3698L 963.483 68.0473L 962.111 69.893ZM 959.768 73.301L 958.41 75.1572L 960.321 76.5559L 961.663 74.604L 959.768 73.301ZM 940.172 63.716L 939.471 65.9066L 939.497 65.9149L 939.523 65.9225L 940.172 63.716ZM 885.005 69.893L 886.442 71.689L 886.452 71.6811L 886.461 71.6731L 885.005 69.893ZM 879.467 112.493L 877.739 114.011L 877.751 114.024L 877.763 114.037L 879.467 112.493ZM 919.511 129.959L 920.069 127.728L 920.062 127.726L 919.511 129.959ZM 945.284 137.84L 944.43 139.975L 944.45 139.984L 944.471 139.992L 945.284 137.84ZM 961.472 149.129L 959.729 150.63L 959.74 150.642L 959.75 150.654L 961.472 149.129ZM 962.537 188.108L 964.465 189.361L 962.537 188.108ZM 945.497 201.74L 946.413 203.85L 946.422 203.846L 946.431 203.842L 945.497 201.74ZM 917.168 204.339C 906.655 204.339 896.795 202.473 887.569 198.755L 885.849 203.021C 895.651 206.971 906.097 208.939 917.168 208.939L 917.168 204.339ZM 887.596 198.766C 878.336 194.896 871.366 189.982 866.55 184.096L 862.99 187.008C 868.398 193.618 876.054 198.928 885.822 203.01L 887.596 198.766ZM 866.335 187.237L 869.317 184.468L 866.187 181.098L 863.205 183.867L 866.335 187.237ZM 866 184.273C 871.117 190.293 878.33 195.235 887.507 199.168L 889.319 194.94C 880.604 191.205 874.043 186.633 869.504 181.293L 866 184.273ZM 887.536 199.18C 896.771 202.992 906.585 204.892 916.955 204.892L 916.955 200.292C 907.161 200.292 897.947 198.5 889.29 194.928L 887.536 199.18ZM 916.955 204.892C 932.676 204.892 944.918 201.801 953.304 195.245L 950.47 191.621C 943.236 197.277 932.19 200.292 916.955 200.292L 916.955 204.892ZM 953.308 195.242C 961.794 188.574 966.115 179.894 966.115 169.364L 961.515 169.364C 961.515 178.43 957.884 185.796 950.466 191.624L 953.308 195.242ZM 966.115 169.364C 966.115 161.274 963.933 154.567 959.342 149.502L 955.934 152.59C 959.579 156.613 961.515 162.118 961.515 169.364L 966.115 169.364ZM 959.342 149.502C 954.961 144.667 949.533 141.059 943.104 138.666L 941.5 142.978C 947.283 145.129 952.079 148.337 955.934 152.59L 959.342 149.502ZM 943.121 138.673C 937.021 136.349 928.817 133.979 918.549 131.555L 917.491 136.031C 927.671 138.435 935.655 140.751 941.483 142.971L 943.121 138.673ZM 918.571 131.56C 907.677 128.872 899.114 126.341 892.847 123.973L 891.221 128.277C 897.734 130.737 906.495 133.318 917.469 136.026L 918.571 131.56ZM 892.888 123.99C 886.828 121.565 881.657 117.938 877.352 113.095L 873.914 116.151C 878.697 121.532 884.46 125.573 891.18 128.26L 892.888 123.99ZM 877.396 113.146C 873.424 108.406 871.33 102.017 871.33 93.749L 866.73 93.749C 866.73 102.805 869.038 110.332 873.87 116.1L 877.396 113.146ZM 871.33 93.749C 871.33 87.3561 872.988 81.5317 876.305 76.224L 872.405 73.786C 868.622 79.8383 866.73 86.5099 866.73 93.749L 871.33 93.749ZM 876.305 76.224C 879.564 71.0097 884.708 66.7331 891.918 63.4682L 890.02 59.2778C 882.178 62.8289 876.246 67.6403 872.405 73.786L 876.305 76.224ZM 891.918 63.4682C 899.062 60.2329 908.018 58.561 918.872 58.561L 918.872 53.961C 907.574 53.961 897.928 55.6971 890.02 59.2778L 891.918 63.4682ZM 918.872 58.561C 926.573 58.561 934.137 59.7978 941.575 62.277L 943.029 57.913C 935.131 55.2802 927.075 53.961 918.872 53.961L 918.872 58.561ZM 941.611 62.2889C 949.074 64.6381 955.438 67.7969 960.739 71.7387L 963.483 68.0473C 957.708 63.7531 950.866 60.3799 942.993 57.9011L 941.611 62.2889ZM 960.216 68.59L 957.873 71.998L 961.663 74.604L 964.006 71.196L 960.216 68.59ZM 961.126 71.4448C 955.08 67.0208 948.306 63.7109 940.821 61.5095L 939.523 65.9225C 946.522 67.9811 952.812 71.0612 958.41 75.1572L 961.126 71.4448ZM 940.873 61.5254C 933.563 59.1861 926.297 58.008 919.085 58.008L 919.085 62.608C 925.789 62.608 932.581 63.7019 939.471 65.9066L 940.873 61.5254ZM 919.085 58.008C 903.889 58.008 891.926 61.2588 883.549 68.1129L 886.461 71.6731C 893.704 65.7472 904.461 62.608 919.085 62.608L 919.085 58.008ZM 883.568 68.097C 875.226 74.7709 870.99 83.4486 870.99 93.962L 875.59 93.962C 875.59 84.8794 879.164 77.5111 886.442 71.689L 883.568 68.097ZM 870.99 93.962C 870.99 102.055 873.173 108.815 877.739 114.011L 881.195 110.975C 877.525 106.799 875.59 101.205 875.59 93.962L 870.99 93.962ZM 877.763 114.037C 882.144 118.872 887.572 122.48 894.001 124.873L 895.605 120.561C 889.822 118.41 885.026 115.202 881.171 110.949L 877.763 114.037ZM 894.001 124.873C 900.224 127.188 908.556 129.627 918.96 132.192L 920.062 127.726C 909.735 125.179 901.594 122.79 895.605 120.561L 894.001 124.873ZM 918.953 132.19C 929.698 134.876 938.177 137.474 944.43 139.975L 946.138 135.705C 939.611 133.094 930.908 130.438 920.069 127.728L 918.953 132.19ZM 944.471 139.992C 950.506 142.272 955.581 145.813 959.729 150.63L 963.215 147.628C 958.559 142.221 952.842 138.236 946.097 135.688L 944.471 139.992ZM 959.75 150.654C 963.684 155.095 965.775 161.242 965.775 169.364L 970.375 169.364C 970.375 160.446 968.064 153.103 963.194 147.604L 959.75 150.654ZM 965.775 169.364C 965.775 175.738 964.057 181.55 960.609 186.855L 964.465 189.361C 968.402 183.306 970.375 176.622 970.375 169.364L 965.775 169.364ZM 960.609 186.855C 957.211 192.081 951.922 196.368 944.563 199.638L 946.431 203.842C 954.408 200.296 960.479 195.495 964.465 189.361L 960.609 186.855ZM 944.581 199.63C 937.433 202.732 928.326 204.339 917.168 204.339L 917.168 208.939C 928.73 208.939 938.509 207.28 946.413 203.85L 944.581 199.63ZM 1107.93 201.953L 1110.23 201.953L 1110.23 199.653L 1107.93 199.653L 1107.93 201.953ZM 1107.93 206L 1107.93 208.3L 1110.23 208.3L 1110.23 206L 1107.93 206ZM 1008.67 206L 1006.37 206L 1006.37 208.3L 1008.67 208.3L 1008.67 206ZM 1008.67 56.9L 1008.67 54.6L 1006.37 54.6L 1006.37 56.9L 1008.67 56.9ZM 1104.73 56.9L 1107.03 56.9L 1107.03 54.6L 1104.73 54.6L 1104.73 56.9ZM 1104.73 60.947L 1104.73 63.247L 1107.03 63.247L 1107.03 60.947L 1104.73 60.947ZM 1012.93 60.947L 1012.93 58.647L 1010.63 58.647L 1010.63 60.947L 1012.93 60.947ZM 1012.93 128.255L 1010.63 128.255L 1010.63 130.555L 1012.93 130.555L 1012.93 128.255ZM 1095.15 128.255L 1097.45 128.255L 1097.45 125.955L 1095.15 125.955L 1095.15 128.255ZM 1095.15 132.302L 1095.15 134.602L 1097.45 134.602L 1097.45 132.302L 1095.15 132.302ZM 1012.93 132.302L 1012.93 130.002L 1010.63 130.002L 1010.63 132.302L 1012.93 132.302ZM 1012.93 201.953L 1010.63 201.953L 1010.63 204.253L 1012.93 204.253L 1012.93 201.953ZM 1105.63 201.953L 1105.63 206L 1110.23 206L 1110.23 201.953L 1105.63 201.953ZM 1107.93 203.7L 1008.67 203.7L 1008.67 208.3L 1107.93 208.3L 1107.93 203.7ZM 1010.97 206L 1010.97 56.9L 1006.37 56.9L 1006.37 206L 1010.97 206ZM 1008.67 59.2L 1104.73 59.2L 1104.73 54.6L 1008.67 54.6L 1008.67 59.2ZM 1102.43 56.9L 1102.43 60.947L 1107.03 60.947L 1107.03 56.9L 1102.43 56.9ZM 1104.73 58.647L 1012.93 58.647L 1012.93 63.247L 1104.73 63.247L 1104.73 58.647ZM 1010.63 60.947L 1010.63 128.255L 1015.23 128.255L 1015.23 60.947L 1010.63 60.947ZM 1012.93 130.555L 1095.15 130.555L 1095.15 125.955L 1012.93 125.955L 1012.93 130.555ZM 1092.85 128.255L 1092.85 132.302L 1097.45 132.302L 1097.45 128.255L 1092.85 128.255ZM 1095.15 130.002L 1012.93 130.002L 1012.93 134.602L 1095.15 134.602L 1095.15 130.002ZM 1010.63 132.302L 1010.63 201.953L 1015.23 201.953L 1015.23 132.302L 1010.63 132.302ZM 1012.93 204.253L 1107.93 204.253L 1107.93 199.653L 1012.93 199.653L 1012.93 204.253ZM 1150.95 56.9L 1150.95 54.6L 1148.65 54.6L 1148.65 56.9L 1150.95 56.9ZM 1248.29 66.485L 1247.19 68.507L 1247.2 68.5124L 1248.29 66.485ZM 1275.98 93.11L 1273.98 94.2565L 1273.99 94.2658L 1274 94.2751L 1275.98 93.11ZM 1275.98 169.79L 1274 168.625L 1273.99 168.634L 1273.98 168.644L 1275.98 169.79ZM 1248.29 196.415L 1247.2 194.388L 1247.19 194.393L 1248.29 196.415ZM 1150.95 206L 1148.65 206L 1148.65 208.3L 1150.95 208.3L 1150.95 206ZM 1246.16 193.007L 1247.24 195.038L 1247.25 195.033L 1246.16 193.007ZM 1272.36 167.873L 1270.37 166.721L 1270.36 166.729L 1272.36 167.873ZM 1272.36 95.24L 1270.36 96.3726L 1270.36 96.3883L 1270.37 96.4038L 1272.36 95.24ZM 1246.16 70.106L 1245.06 72.1261L 1245.07 72.1344L 1245.09 72.1424L 1246.16 70.106ZM 1155.21 60.947L 1155.21 58.647L 1152.91 58.647L 1152.91 60.947L 1155.21 60.947ZM 1155.21 201.953L 1152.91 201.953L 1152.91 204.253L 1155.21 204.253L 1155.21 201.953ZM 1150.95 59.2L 1207.39 59.2L 1207.39 54.6L 1150.95 54.6L 1150.95 59.2ZM 1207.39 59.2C 1222.55 59.2 1235.79 62.3259 1247.19 68.5069L 1249.38 64.4631C 1237.21 57.8641 1223.19 54.6 1207.39 54.6L 1207.39 59.2ZM 1247.2 68.5124C 1258.76 74.7064 1267.67 83.2818 1273.98 94.2565L 1277.97 91.9635C 1271.22 80.2182 1261.67 71.0436 1249.37 64.4576L 1247.2 68.5124ZM 1274 94.2751C 1280.45 105.254 1283.69 117.627 1283.69 131.45L 1288.29 131.45C 1288.29 116.873 1284.86 103.686 1277.96 91.9449L 1274 94.2751ZM 1283.69 131.45C 1283.69 145.273 1280.45 157.646 1274 168.625L 1277.96 170.955C 1284.86 159.214 1288.29 146.027 1288.29 131.45L 1283.69 131.45ZM 1273.98 168.644C 1267.67 179.618 1258.76 188.194 1247.2 194.388L 1249.37 198.442C 1261.67 191.856 1271.22 182.682 1277.97 170.936L 1273.98 168.644ZM 1247.19 194.393C 1235.79 200.574 1222.55 203.7 1207.39 203.7L 1207.39 208.3C 1223.19 208.3 1237.21 205.036 1249.38 198.437L 1247.19 194.393ZM 1207.39 203.7L 1150.95 203.7L 1150.95 208.3L 1207.39 208.3L 1207.39 203.7ZM 1153.25 206L 1153.25 56.9L 1148.65 56.9L 1148.65 206L 1153.25 206ZM 1206.97 204.253C 1222.19 204.253 1235.63 201.207 1247.24 195.038L 1245.08 190.976C 1234.25 196.735 1221.57 199.653 1206.97 199.653L 1206.97 204.253ZM 1247.25 195.033C 1258.97 188.734 1268.02 180.059 1274.35 169.017L 1270.36 166.729C 1264.48 176.987 1256.07 185.068 1245.07 190.981L 1247.25 195.033ZM 1274.35 169.025C 1280.81 157.855 1284.03 145.311 1284.03 131.45L 1279.43 131.45C 1279.43 144.569 1276.4 156.307 1270.37 166.721L 1274.35 169.025ZM 1284.03 131.45C 1284.03 117.59 1280.81 105.111 1274.34 94.0762L 1270.37 96.4038C 1276.4 106.669 1279.43 118.33 1279.43 131.45L 1284.03 131.45ZM 1274.36 94.1074C 1268.03 82.9169 1258.96 74.2315 1247.23 68.0696L 1245.09 72.1424C 1256.07 77.9085 1264.47 85.9791 1270.36 96.3726L 1274.36 94.1074ZM 1247.26 68.0859C 1235.65 61.7676 1222.2 58.647 1206.97 58.647L 1206.97 63.247C 1221.56 63.247 1234.23 66.2324 1245.06 72.1261L 1247.26 68.0859ZM 1206.97 58.647L 1155.21 58.647L 1155.21 63.247L 1206.97 63.247L 1206.97 58.647ZM 1152.91 60.947L 1152.91 201.953L 1157.51 201.953L 1157.51 60.947L 1152.91 60.947ZM 1155.21 204.253L 1206.97 204.253L 1206.97 199.653L 1155.21 199.653L 1155.21 204.253Z"/>
<path id="path2_stroke" d="M 89.141 0L 91.488 -2.59641L 89.1932 -4.67083L 86.8526 -2.64825L 89.141 0ZM 13.2919 86.4162L 16.3162 88.178L 16.3517 88.1171L 16.3847 88.0547L 13.2919 86.4162ZM 0.273032 138.152L 3.76889 137.982L 3.76439 137.89L 3.75503 137.798L 0.273032 138.152ZM 178.575 138.152L 182.041 138.638L 182.045 138.611L 182.048 138.585L 178.575 138.152ZM 166.122 86.4162L 169.218 84.7842L 166.122 86.4162ZM 86.8526 -2.64825C 78.268 4.76988 62.4864 20.2854 47.2221 37.0266C 32.0239 53.6953 16.9973 71.9457 10.1991 84.7777L 16.3847 88.0547C 22.7186 76.099 37.1731 58.4374 52.3947 41.7429C 67.5502 25.1211 83.1272 9.82233 91.4294 2.64825L 86.8526 -2.64825ZM 10.2676 84.6545C 7.53891 89.3386 3.66659 97.516 0.726671 107.093C -2.20627 116.647 -4.29341 127.857 -3.20896 138.507L 3.75503 137.798C 2.80174 128.436 4.62969 118.231 7.41845 109.147C 10.2002 100.085 13.8562 92.4008 16.3162 88.178L 10.2676 84.6545ZM -3.22282 138.323C -0.575374 192.686 41.4528 224.152 84.7942 226.288C 106.479 227.356 128.625 221.112 146.469 206.671C 164.347 192.204 177.687 169.691 182.041 138.638L 175.109 137.666C 170.973 167.162 158.416 187.999 142.066 201.23C 125.683 214.487 105.27 220.288 85.1388 219.296C 44.8481 217.31 6.21581 188.228 3.76889 137.982L -3.22282 138.323ZM 182.048 138.585C 183.083 130.272 181.768 108.593 169.218 84.7842L 163.026 88.0482C 174.929 110.631 175.954 130.872 175.102 137.72L 182.048 138.585ZM 169.218 84.7842C 162.378 71.8072 147.063 53.7271 131.612 37.194C 116.07 20.5635 100.051 5.14432 91.488 -2.59641L 86.7939 2.59641C 95.2119 10.2059 111.091 25.4873 126.498 41.9735C 141.996 58.5572 156.681 76.0101 163.026 88.0482L 169.218 84.7842Z"/>
<path id="path3_stroke" d="M -2.47097 2.87575L 123.529 128.479L 128.471 123.521L 2.47097 -2.08181L -2.47097 2.87575ZM 6.96019 128.489L 134.46 2.48947L 129.54 -2.48947L 2.03981 123.511L 6.96019 128.489Z"/>
</defs>
</svg>
