<svg width="422" height="100" viewBox="0 0 422 100" version="1.1" xmlns="http://www.w3.org/2000/svg" xmlns:xlink="http://www.w3.org/1999/xlink">
<title>logo</title>
<desc>Created using Figma</desc>
<g id="Canvas" transform="translate(3973 9150)">
<g id="logo">
<g id="Group 3.22">
<g id="Ellipse">
<use xlink:href="#path0_fill" transform="translate(-3651 -9150)" fill="#652A7A"/>
</g>
<g id="F">
<use xlink:href="#path1_fill" transform="translate(-3616 -9115)" fill="#FFFFFF"/>
</g>
</g>
<g id="Group 3.23">
<g id="Ellipse">
<use xlink:href="#path0_fill" transform="translate(-3758 -9150)" fill="#A86839"/>
</g>
<g id="A">
<use xlink:href="#path2_fill" transform="translate(-3723 -9115)" fill="#FFFFFF"/>
</g>
</g>
<g id="Group 3.24">
<g id="Ellipse">
<use xlink:href="#path0_fill" transform="translate(-3866 -9150)" fill="#83A340"/>
</g>
<g id="E">
<use xlink:href="#path3_fill" transform="translate(-3831 -9115)" fill="#FFFFFF"/>
</g>
</g>
<g id="Group 2.8">
<g id="Ellipse">
<use xlink:href="#path0_fill" transform="translate(-3973 -9150)" fill="#AD0202"/>
</g>
<g id="L">
<use xlink:href="#path4_fill" transform="translate(-3938 -9118)" fill="#FFFFFF"/>
</g>
</g>
</g>
</g>
<defs>
<path id="path0_fill" d="M 100 50C 100 77.6142 77.6142 100 50 100C 22.3858 100 0 77.6142 0 50C 0 22.3858 22.3858 0 50 0C 77.6142 0 100 22.3858 100 50Z"/>
<path id="path1_fill" d="M 1.45161 30C 1.05735 30 0.716846 29.8857 0.430108 29.6571C 0.143369 29.4286 0 29.1571 0 28.8429L 0 1.15714C 0 0.842857 0.143369 0.571428 0.430108 0.342857C 0.716846 0.114286 1.05735 0 1.45161 0L 28.5484 0C 28.9427 0 29.2832 0.114286 29.5699 0.342857C 29.8566 0.571428 30 0.842857 30 1.15714L 30 7.67143C 30 7.98571 29.8566 8.25714 29.5699 8.48571C 29.2832 8.71429 28.9427 8.82857 28.5484 8.82857L 13.172 8.82857L 13.172 12L 27.4731 12C 27.8674 12 28.2079 12.1143 28.4946 12.3429C 28.7814 12.5714 28.9247 12.8429 28.9247 13.1571L 28.9247 19.6286C 28.9247 19.9429 28.7814 20.2143 28.4946 20.4429C 28.2079 20.6714 27.8674 20.7857 27.4731 20.7857L 13.172 20.7857L 13.172 28.8429C 13.172 29.1571 13.0287 29.4286 12.7419 29.6571C 12.4552 29.8857 12.1147 30 11.7204 30L 1.45161 30Z"/>
<path id="path2_fill" d="M 0.874172 30C 0.635762 30 0.423841 29.9143 0.238411 29.7429C 0.0794702 29.5429 0 29.3143 0 29.0571C 0 28.9429 0.013245 28.8429 0.0397351 28.7571L 8.90066 1.41429C 9.00662 1.04286 9.2053 0.714285 9.49669 0.428571C 9.78808 0.142857 10.1854 0 10.6887 0L 19.3113 0C 19.8146 0 20.2119 0.142857 20.5033 0.428571C 20.7947 0.714285 20.9934 1.04286 21.0993 1.41429L 29.9603 28.7571C 29.9868 28.8429 30 28.9429 30 29.0571C 30 29.3143 29.9073 29.5429 29.7219 29.7429C 29.5629 29.9143 29.3642 30 29.1258 30L 21.7748 30C 20.9801 30 20.4636 29.6429 20.2252 28.9286L 19.2715 26.1L 10.7285 26.1L 9.77483 28.9286C 9.53642 29.6429 9.01987 30 8.22517 30L 0.874172 30ZM 17.245 17.7429L 14.9801 9.77143L 12.755 17.7429L 17.245 17.7429Z"/>
<path id="path3_fill" d="M 1.4087 30C 1.02609 30 0.695652 29.8857 0.417391 29.6571C 0.13913 29.4286 0 29.1571 0 28.8429L 0 1.15714C 0 0.842857 0.13913 0.571428 0.417391 0.342857C 0.695652 0.114286 1.02609 0 1.4087 0L 28.1739 0C 28.5565 0 28.887 0.114286 29.1652 0.342857C 29.4435 0.571428 29.5826 0.842857 29.5826 1.15714L 29.5826 7.2C 29.5826 7.51429 29.4435 7.78571 29.1652 8.01428C 28.887 8.24286 28.5565 8.35714 28.1739 8.35714L 12.5217 8.35714L 12.5217 11.0571L 27.0261 11.0571C 27.4087 11.0571 27.7391 11.1714 28.0174 11.4C 28.2957 11.6286 28.4348 11.9 28.4348 12.2143L 28.4348 17.7857C 28.4348 18.1 28.2957 18.3714 28.0174 18.6C 27.7391 18.8286 27.4087 18.9429 27.0261 18.9429L 12.5217 18.9429L 12.5217 21.6429L 28.5913 21.6429C 28.9739 21.6429 29.3043 21.7571 29.5826 21.9857C 29.8609 22.2143 30 22.4857 30 22.8L 30 28.8429C 30 29.1571 29.8609 29.4286 29.5826 29.6571C 29.3043 29.8857 28.9739 30 28.5913 30L 1.4087 30Z"/>
<path id="path4_fill" d="M 1.45161 30C 1.05735 30 0.716846 29.8857 0.430108 29.6571C 0.143369 29.4286 0 29.1571 0 28.8429L 0 1.15714C 0 0.842857 0.143369 0.571428 0.430108 0.342857C 0.716846 0.114286 1.05735 0 1.45161 0L 12.2043 0C 12.5986 0 12.9391 0.114286 13.2258 0.342857C 13.5125 0.571428 13.6559 0.842857 13.6559 1.15714L 13.6559 21.2143L 28.5484 21.2143C 28.9427 21.2143 29.2832 21.3286 29.5699 21.5571C 29.8566 21.7857 30 22.0571 30 22.3714L 30 28.8429C 30 29.1571 29.8566 29.4286 29.5699 29.6571C 29.2832 29.8857 28.9427 30 28.5484 30L 1.45161 30Z"/>
</defs>
</svg>
