<svg width="110" height="38" viewBox="0 0 110 38" version="1.1" xmlns="http://www.w3.org/2000/svg" xmlns:xlink="http://www.w3.org/1999/xlink">
<title>logo</title>
<desc>Created using Figma</desc>
<g id="Canvas" transform="translate(-2470 6523)">
<g id="logo">
<g id="digleaf">
<use xlink:href="#path0_fill" transform="translate(2360 -6540)" fill="#913983"/>
<use xlink:href="#path1_fill" transform="translate(2360 -6540)" fill="#91BD35"/>
</g>
</g>
</g>
<defs>
<path id="path0_fill" d="M 127.951 46L 125.971 46C 125.897 45.0467 125.861 43.9467 125.861 42.7C 124.137 45.23 121.809 46.495 118.876 46.495C 116.199 46.495 114.072 45.5783 112.496 43.745C 110.919 41.875 110.131 39.4367 110.131 36.43C 110.131 33.68 110.882 31.4067 112.386 29.61C 113.889 27.8133 115.942 26.915 118.546 26.915C 121.662 26.915 124.027 28.235 125.641 30.875L 125.641 18.225L 127.786 18.225L 127.786 41.435C 127.786 43.525 127.841 45.0467 127.951 46ZM 125.641 38.52L 125.641 35.385C 125.641 33.3683 124.926 31.7183 123.496 30.435C 122.212 29.225 120.691 28.62 118.931 28.62C 116.804 28.62 115.154 29.3533 113.981 30.82C 112.807 32.2867 112.221 34.175 112.221 36.485C 112.221 41.9483 114.531 44.68 119.151 44.68C 120.984 44.68 122.524 44.0933 123.771 42.92C 125.017 41.7467 125.641 40.28 125.641 38.52ZM 135.671 46L 133.526 46L 133.526 27.3L 135.671 27.3L 135.671 46ZM 136.276 21.635C 136.276 22.1483 136.111 22.57 135.781 22.9C 135.451 23.1933 135.029 23.34 134.516 23.34C 134.003 23.34 133.581 23.1933 133.251 22.9C 132.958 22.57 132.811 22.1483 132.811 21.635C 132.811 21.1217 132.958 20.7 133.251 20.37C 133.581 20.04 134.003 19.875 134.516 19.875C 135.029 19.875 135.451 20.04 135.781 20.37C 136.111 20.7 136.276 21.1217 136.276 21.635ZM 153.633 33.46C 153.633 35.5133 152.991 37.145 151.708 38.355C 150.461 39.565 148.903 40.17 147.033 40.17C 145.896 40.17 144.924 39.9683 144.118 39.565C 143.898 40.115 143.788 40.6467 143.788 41.16C 143.788 42.1133 145.273 43.0117 148.243 43.855C 151.763 44.845 153.523 46.6417 153.523 49.245C 153.523 50.8217 152.954 52.105 151.818 53.095C 150.681 54.1217 149.013 54.635 146.813 54.635C 144.869 54.635 143.091 54.14 141.478 53.15L 142.248 51.39C 143.824 52.3067 145.401 52.765 146.978 52.765C 148.334 52.765 149.453 52.4533 150.333 51.83C 151.213 51.2067 151.653 50.4 151.653 49.41C 151.653 47.65 150.204 46.2933 147.308 45.34C 145.548 44.79 144.338 44.295 143.678 43.855C 142.541 43.1583 141.973 42.26 141.973 41.16C 141.973 40.5 142.156 39.62 142.523 38.52C 141.166 37.0533 140.488 35.495 140.488 33.845C 140.488 31.865 141.111 30.27 142.358 29.06C 143.604 27.85 145.071 27.245 146.758 27.245L 154.073 27.245L 154.073 29.005L 151.378 28.73C 152.881 30.1967 153.633 31.7733 153.633 33.46ZM 151.763 33.735C 151.763 32.525 151.378 31.4617 150.608 30.545C 149.728 29.445 148.536 28.895 147.033 28.895C 145.566 28.895 144.429 29.39 143.623 30.38C 142.816 31.3333 142.413 32.47 142.413 33.79C 142.413 35.2567 142.908 36.43 143.898 37.31C 144.814 38.1167 145.859 38.52 147.033 38.52C 148.353 38.52 149.471 38.0983 150.388 37.255C 151.304 36.4117 151.763 35.2383 151.763 33.735Z"/>
<path id="path1_fill" d="M 165.598 44.515L 165.378 46.385C 160.758 46.165 158.448 42.9017 158.448 36.595L 158.448 18.225L 160.593 18.225L 160.593 35.77C 160.593 38.4467 160.831 40.39 161.308 41.6C 162.041 43.5067 163.471 44.4783 165.598 44.515ZM 184.419 43.36L 184.584 45.175C 182.457 46.055 180.147 46.495 177.654 46.495C 174.794 46.495 172.484 45.615 170.724 43.855C 168.964 42.095 168.084 39.8583 168.084 37.145C 168.084 34.065 168.964 31.59 170.724 29.72C 172.484 27.85 174.72 26.915 177.434 26.915C 182.677 26.915 185.354 30.1967 185.464 36.76L 170.174 36.76C 170.247 39.2533 170.98 41.1967 172.374 42.59C 173.804 43.9467 175.637 44.625 177.874 44.625C 180.074 44.625 182.255 44.2033 184.419 43.36ZM 183.429 35.055C 183.392 33.5517 182.97 32.2133 182.164 31.04C 181.064 29.4267 179.395 28.62 177.159 28.62C 175.142 28.62 173.492 29.3533 172.209 30.82C 171.182 31.9933 170.54 33.405 170.284 35.055L 183.429 35.055ZM 203.89 46L 201.965 46.385L 201.195 43.36C 199.508 45.45 197.29 46.495 194.54 46.495C 192.927 46.495 191.533 46.0367 190.36 45.12C 189.187 44.2033 188.6 42.9383 188.6 41.325C 188.6 36.6683 192.652 34.34 200.755 34.34L 201.085 34.34L 201.085 34.01C 201.085 32.8 200.81 31.7367 200.26 30.82C 199.417 29.3533 197.987 28.62 195.97 28.62C 194.687 28.62 192.707 29.0417 190.03 29.885L 189.755 27.905C 191.808 27.245 193.935 26.915 196.135 26.915C 200.865 26.915 203.23 29.5183 203.23 34.725L 203.23 41.435C 203.23 42.975 203.45 44.4967 203.89 46ZM 201.085 39.95L 201.085 36.21C 194.265 36.21 190.855 37.7867 190.855 40.94C 190.855 42.15 191.222 43.085 191.955 43.745C 192.688 44.3683 193.605 44.68 194.705 44.68C 197.602 44.68 199.637 43.4517 200.81 40.995C 200.993 40.5917 201.085 40.2433 201.085 39.95ZM 219.331 18.665L 218.726 20.205C 217.92 19.8017 217.021 19.6 216.031 19.6C 213.098 19.6 211.631 21.9283 211.631 26.585L 211.631 27.3L 217.021 27.3L 217.021 29.005L 211.631 29.005L 211.631 46L 209.486 46L 209.486 29.005L 206.351 29.005L 206.351 27.3L 209.541 27.3L 209.541 26.585C 209.541 20.7183 211.76 17.785 216.196 17.785C 217.59 17.785 218.635 18.0783 219.331 18.665Z"/>
</defs>
</svg>
