<svg width="422" height="158" viewBox="0 0 422 158" version="1.1" xmlns="http://www.w3.org/2000/svg" xmlns:xlink="http://www.w3.org/1999/xlink">
<title>logo</title>
<desc>Created using Figma</desc>
<g id="Canvas" transform="translate(3485 9464)">
<g id="logo">
<g id="LEAF">
<g id="Group 3.22">
<g id="Ellipse">
<use xlink:href="#path0_fill" transform="translate(-3163 -9464)" fill="#9956B2"/>
</g>
<g id="F">
<use xlink:href="#path1_fill" transform="translate(-3128 -9429)" fill="#FFFFFF"/>
</g>
</g>
<g id="Group 3.23">
<g id="Ellipse">
<use xlink:href="#path0_fill" transform="translate(-3270 -9464)" fill="#A86839"/>
</g>
<g id="A">
<use xlink:href="#path2_fill" transform="translate(-3235 -9429)" fill="#FFFFFF"/>
</g>
</g>
<g id="Group 3.24">
<g id="Ellipse">
<use xlink:href="#path0_fill" transform="translate(-3378 -9464)" fill="#83A340"/>
</g>
<g id="E">
<use xlink:href="#path3_fill" transform="translate(-3343 -9429)" fill="#FFFFFF"/>
</g>
</g>
<g id="Group 2.8">
<g id="Ellipse">
<use xlink:href="#path0_fill" transform="translate(-3485 -9464)" fill="#AD0202"/>
</g>
<g id="L">
<use xlink:href="#path4_fill" transform="translate(-3450 -9432)" fill="#FFFFFF"/>
</g>
</g>
</g>
<g id="STYL">
<use xlink:href="#path5_fill" transform="translate(-3442 -9346)" fill="#4F4F4F"/>
</g>
</g>
</g>
<defs>
<path id="path0_fill" d="M 100 50C 100 77.6142 77.6142 100 50 100C 22.3858 100 0 77.6142 0 50C 0 22.3858 22.3858 0 50 0C 77.6142 0 100 22.3858 100 50Z"/>
<path id="path1_fill" d="M 1.45161 30C 1.05735 30 0.716846 29.8857 0.430108 29.6571C 0.143369 29.4286 0 29.1571 0 28.8429L 0 1.15714C 0 0.842857 0.143369 0.571428 0.430108 0.342857C 0.716846 0.114286 1.05735 0 1.45161 0L 28.5484 0C 28.9427 0 29.2832 0.114286 29.5699 0.342857C 29.8566 0.571428 30 0.842857 30 1.15714L 30 7.67143C 30 7.98571 29.8566 8.25714 29.5699 8.48571C 29.2832 8.71429 28.9427 8.82857 28.5484 8.82857L 13.172 8.82857L 13.172 12L 27.4731 12C 27.8674 12 28.2079 12.1143 28.4946 12.3429C 28.7814 12.5714 28.9247 12.8429 28.9247 13.1571L 28.9247 19.6286C 28.9247 19.9429 28.7814 20.2143 28.4946 20.4429C 28.2079 20.6714 27.8674 20.7857 27.4731 20.7857L 13.172 20.7857L 13.172 28.8429C 13.172 29.1571 13.0287 29.4286 12.7419 29.6571C 12.4552 29.8857 12.1147 30 11.7204 30L 1.45161 30Z"/>
<path id="path2_fill" d="M 0.874172 30C 0.635762 30 0.423841 29.9143 0.238411 29.7429C 0.0794702 29.5429 0 29.3143 0 29.0571C 0 28.9429 0.013245 28.8429 0.0397351 28.7571L 8.90066 1.41429C 9.00662 1.04286 9.2053 0.714285 9.49669 0.428571C 9.78808 0.142857 10.1854 0 10.6887 0L 19.3113 0C 19.8146 0 20.2119 0.142857 20.5033 0.428571C 20.7947 0.714285 20.9934 1.04286 21.0993 1.41429L 29.9603 28.7571C 29.9868 28.8429 30 28.9429 30 29.0571C 30 29.3143 29.9073 29.5429 29.7219 29.7429C 29.5629 29.9143 29.3642 30 29.1258 30L 21.7748 30C 20.9801 30 20.4636 29.6429 20.2252 28.9286L 19.2715 26.1L 10.7285 26.1L 9.77483 28.9286C 9.53642 29.6429 9.01987 30 8.22517 30L 0.874172 30ZM 17.245 17.7429L 14.9801 9.77143L 12.755 17.7429L 17.245 17.7429Z"/>
<path id="path3_fill" d="M 1.4087 30C 1.02609 30 0.695652 29.8857 0.417391 29.6571C 0.13913 29.4286 0 29.1571 0 28.8429L 0 1.15714C 0 0.842857 0.13913 0.571428 0.417391 0.342857C 0.695652 0.114286 1.02609 0 1.4087 0L 28.1739 0C 28.5565 0 28.887 0.114286 29.1652 0.342857C 29.4435 0.571428 29.5826 0.842857 29.5826 1.15714L 29.5826 7.2C 29.5826 7.51429 29.4435 7.78571 29.1652 8.01428C 28.887 8.24286 28.5565 8.35714 28.1739 8.35714L 12.5217 8.35714L 12.5217 11.0571L 27.0261 11.0571C 27.4087 11.0571 27.7391 11.1714 28.0174 11.4C 28.2957 11.6286 28.4348 11.9 28.4348 12.2143L 28.4348 17.7857C 28.4348 18.1 28.2957 18.3714 28.0174 18.6C 27.7391 18.8286 27.4087 18.9429 27.0261 18.9429L 12.5217 18.9429L 12.5217 21.6429L 28.5913 21.6429C 28.9739 21.6429 29.3043 21.7571 29.5826 21.9857C 29.8609 22.2143 30 22.4857 30 22.8L 30 28.8429C 30 29.1571 29.8609 29.4286 29.5826 29.6571C 29.3043 29.8857 28.9739 30 28.5913 30L 1.4087 30Z"/>
<path id="path4_fill" d="M 1.45161 30C 1.05735 30 0.716846 29.8857 0.430108 29.6571C 0.143369 29.4286 0 29.1571 0 28.8429L 0 1.15714C 0 0.842857 0.143369 0.571428 0.430108 0.342857C 0.716846 0.114286 1.05735 0 1.45161 0L 12.2043 0C 12.5986 0 12.9391 0.114286 13.2258 0.342857C 13.5125 0.571428 13.6559 0.842857 13.6559 1.15714L 13.6559 21.2143L 28.5484 21.2143C 28.9427 21.2143 29.2832 21.3286 29.5699 21.5571C 29.8566 21.7857 30 22.0571 30 22.3714L 30 28.8429C 30 29.1571 29.8566 29.4286 29.5699 29.6571C 29.2832 29.8857 28.9427 30 28.5484 30L 1.45161 30Z"/>
<path id="path5_fill" d="M 81.1101 9.83936C 80.4627 9.52393 79.7156 9.19189 78.8689 8.84326C 78.0222 8.47803 77.0511 8.1543 75.9554 7.87207C 74.8763 7.58984 73.656 7.35742 72.2947 7.1748C 70.9334 6.97559 69.4226 6.87598 67.7625 6.87598C 65.7537 6.87598 63.9607 6.99219 62.3836 7.22461C 60.823 7.45703 59.4949 7.82227 58.3992 8.32031C 57.3201 8.80176 56.49 9.41602 55.909 10.1631C 55.3445 10.9102 55.0623 11.7983 55.0623 12.8276C 55.0623 13.6909 55.3279 14.4463 55.8592 15.0938C 56.407 15.7412 57.1375 16.314 58.0506 16.812C 58.9803 17.3101 60.0594 17.7666 61.2879 18.1816C 62.533 18.5801 63.8445 18.9619 65.2224 19.3271C 66.617 19.6758 68.0447 20.0327 69.5056 20.3979C 70.9832 20.7632 72.4109 21.1616 73.7888 21.5933C 75.1834 22.0083 76.4949 22.4814 77.7234 23.0127C 78.9685 23.5273 80.0476 24.1333 80.9607 24.8306C 81.8904 25.5278 82.6209 26.3247 83.1521 27.2212C 83.7 28.1177 83.9739 29.1553 83.9739 30.334C 83.9739 31.6123 83.7332 32.7329 83.2517 33.6958C 82.7703 34.6421 82.1145 35.4639 81.2845 36.1611C 80.471 36.8418 79.5081 37.4146 78.3958 37.8794C 77.3001 38.3276 76.1214 38.6846 74.8596 38.9502C 73.6145 39.2158 72.3196 39.3984 70.9749 39.498C 69.6468 39.6143 68.3352 39.6724 67.0403 39.6724C 64.0686 39.6724 61.3709 39.4565 58.9471 39.0249C 56.5398 38.5933 54.2405 38.0039 52.0491 37.2568L 52.0491 33.4468C 54.3069 34.7915 56.6892 35.7129 59.1961 36.2109C 61.7195 36.709 64.3675 36.958 67.1399 36.958C 69.0989 36.958 70.9085 36.8418 72.5686 36.6094C 74.2288 36.377 75.6648 36.0117 76.8767 35.5137C 78.0887 34.999 79.0266 34.335 79.6907 33.5215C 80.3714 32.708 80.7117 31.7119 80.7117 30.5332C 80.7117 29.5869 80.4378 28.7568 79.8899 28.043C 79.3587 27.3291 78.6282 26.7065 77.6985 26.1753C 76.7854 25.6274 75.7063 25.146 74.4612 24.731C 73.2327 24.3159 71.9295 23.9341 70.5515 23.5854C 69.1736 23.2202 67.7459 22.8716 66.2683 22.5396C 64.8074 22.1909 63.388 21.8174 62.01 21.4189C 60.6321 21.0205 59.3206 20.5723 58.0755 20.0742C 56.847 19.5762 55.7679 18.9951 54.8382 18.3311C 53.9251 17.6504 53.1946 16.8701 52.6468 15.9902C 52.1155 15.1104 51.8499 14.0894 51.8499 12.9272C 51.8499 11.7817 52.0657 10.769 52.4973 9.88916C 52.929 8.99268 53.5183 8.2207 54.2654 7.57324C 55.0291 6.92578 55.9173 6.38623 56.93 5.95459C 57.9427 5.50635 59.0218 5.15771 60.1673 4.90869C 61.3294 4.64307 62.533 4.45215 63.7781 4.33594C 65.0232 4.21973 66.2517 4.16162 67.4637 4.16162C 68.7918 4.16162 70.0452 4.21973 71.2239 4.33594C 72.4192 4.45215 73.5647 4.60986 74.6604 4.80908C 75.7727 4.9917 76.8518 5.20752 77.8977 5.45654C 78.9602 5.70557 80.031 5.97119 81.1101 6.25342L 81.1101 9.83936ZM 140.122 7.62305L 140.122 39L 137.034 39L 137.034 7.62305L 121.47 7.62305L 121.47 4.78418L 155.686 4.78418L 155.686 7.62305L 140.122 7.62305ZM 210.314 24.5068L 210.314 39L 207.202 39L 207.202 24.5068L 191.14 4.78418L 194.85 4.78418L 208.771 21.917L 222.641 4.78418L 226.376 4.78418L 210.314 24.5068ZM 266.637 39L 266.637 4.78418L 269.749 4.78418L 269.749 36.0864L 294.751 36.0864L 294.751 39L 266.637 39Z"/>
</defs>
</svg>
