<svg width="554" height="52" viewBox="0 0 554 52" version="1.1" xmlns="http://www.w3.org/2000/svg" xmlns:xlink="http://www.w3.org/1999/xlink">
<title>logo</title>
<desc>Created using Figma</desc>
<g id="Canvas" transform="translate(-8314 6403)">
<g id="logo">
<g id="LeafBaseD">
<use xlink:href="#path0_fill" transform="translate(8306 -6408)" fill="#889E49"/>
<use xlink:href="#path1_fill" transform="translate(8306 -6408)" fill="#527F85"/>
</g>
</g>
</g>
<defs>
<path id="path0_fill" d="M 8.34668 56L 8.34668 6.35352L 12.8633 6.35352L 12.8633 51.7725L 49.1406 51.7725L 49.1406 56L 8.34668 56ZM 110.277 53.3984C 108.254 54.0247 106.375 54.5667 104.641 55.0244C 102.906 55.458 101.196 55.8073 99.5098 56.0723C 97.8236 56.3613 96.1012 56.5661 94.3428 56.6865C 92.6084 56.8311 90.6934 56.9033 88.5977 56.9033C 83.7318 56.9033 79.3356 56.3132 75.4092 55.1328C 71.4827 53.9525 68.1344 52.2663 65.3643 50.0742C 62.6182 47.8581 60.4984 45.1842 59.0049 42.0527C 57.5114 38.9212 56.7646 35.4043 56.7646 31.502C 56.7646 27.7201 57.4753 24.2513 58.8965 21.0957C 60.3418 17.9401 62.3532 15.2301 64.9307 12.9658C 67.5081 10.7015 70.5915 8.94303 74.1807 7.69043C 77.7699 6.43783 81.7324 5.81152 86.0684 5.81152C 90.5729 5.81152 94.5837 6.41374 98.1006 7.61816C 101.618 8.82259 104.58 10.5449 106.989 12.7852C 109.398 15.0254 111.229 17.7474 112.481 20.9512C 113.734 24.1309 114.36 27.7201 114.36 31.7188L 114.36 32.8389L 61.4258 32.8389C 61.6908 35.9222 62.4616 38.7044 63.7383 41.1855C 65.015 43.6667 66.8216 45.7744 69.1582 47.5088C 71.5189 49.2432 74.4095 50.5801 77.8301 51.5195C 81.2747 52.4349 85.2855 52.8926 89.8623 52.8926C 91.8135 52.8926 93.7887 52.7601 95.7881 52.4951C 97.7874 52.2301 99.7025 51.8809 101.533 51.4473C 103.364 50.9896 105.038 50.4837 106.556 49.9297C 108.073 49.3516 109.314 48.7614 110.277 48.1592L 110.277 53.3984ZM 109.916 28.9004C 109.747 26.3711 109.181 23.9622 108.218 21.6738C 107.254 19.3613 105.809 17.3258 103.882 15.5674C 101.979 13.8089 99.5459 12.4118 96.583 11.376C 93.6442 10.3402 90.1152 9.82227 85.9961 9.82227C 82.1178 9.82227 78.7214 10.3402 75.8066 11.376C 72.8919 12.4118 70.4229 13.8089 68.3994 15.5674C 66.376 17.3018 64.7861 19.3252 63.6299 21.6377C 62.4736 23.9261 61.7389 26.347 61.4258 28.9004L 109.916 28.9004ZM 172.534 56L 172.534 50.5078C 170.8 51.4473 168.825 52.3145 166.608 53.1094C 164.416 53.9043 162.092 54.5908 159.635 55.1689C 157.202 55.7471 154.697 56.1927 152.119 56.5059C 149.542 56.819 147.012 56.9756 144.531 56.9756C 141.303 56.9756 138.401 56.6865 135.823 56.1084C 133.27 55.5303 131.102 54.6751 129.319 53.543C 127.537 52.3867 126.164 50.9655 125.2 49.2793C 124.237 47.569 123.755 45.5938 123.755 43.3535C 123.755 41.1374 124.309 39.1862 125.417 37.5C 126.549 35.7897 128.151 34.3083 130.223 33.0557C 132.294 31.779 134.787 30.707 137.702 29.8398C 140.641 28.9486 143.917 28.2018 147.53 27.5996C 151.144 26.9733 155.046 26.4674 159.237 26.082C 163.453 25.6725 167.885 25.3353 172.534 25.0703L 172.534 21.2764C 172.534 19.7347 172.245 18.3737 171.667 17.1934C 171.089 16.013 170.282 14.9893 169.246 14.1221C 168.21 13.2308 166.994 12.4961 165.597 11.918C 164.2 11.3158 162.682 10.834 161.044 10.4727C 159.43 10.1113 157.72 9.8584 155.913 9.71387C 154.131 9.54525 152.336 9.46094 150.529 9.46094C 148.096 9.46094 145.88 9.58138 143.881 9.82227C 141.882 10.0632 140.015 10.4004 138.28 10.834C 136.546 11.2435 134.884 11.7253 133.294 12.2793C 131.704 12.8333 130.102 13.4235 128.488 14.0498L 128.488 8.77441C 131.837 7.88314 135.402 7.1123 139.184 6.46191C 142.99 5.78743 147.024 5.4502 151.288 5.4502C 154.901 5.4502 158.274 5.76335 161.405 6.38965C 164.537 6.99186 167.259 7.96745 169.571 9.31641C 171.884 10.6654 173.702 12.4118 175.027 14.5557C 176.352 16.6755 177.015 19.265 177.015 22.3242L 177.015 56L 172.534 56ZM 172.534 29.0811C 164.657 29.5146 157.924 30.1289 152.336 30.9238C 146.771 31.7188 142.219 32.6943 138.678 33.8506C 135.137 35.0068 132.535 36.3558 130.873 37.8975C 129.235 39.4391 128.416 41.1855 128.416 43.1367C 128.416 44.7266 128.813 46.1357 129.608 47.3643C 130.427 48.5928 131.596 49.6286 133.113 50.4717C 134.631 51.2907 136.474 51.917 138.642 52.3506C 140.81 52.7601 143.243 52.9648 145.94 52.9648C 147.53 52.9648 149.168 52.8805 150.854 52.7119C 152.565 52.5192 154.263 52.2663 155.949 51.9531C 157.635 51.6159 159.298 51.2305 160.936 50.7969C 162.574 50.3392 164.115 49.8454 165.561 49.3154C 167.006 48.7855 168.319 48.2194 169.499 47.6172C 170.703 47.015 171.715 46.4007 172.534 45.7744L 172.534 29.0811ZM 218.748 10.5811C 215.111 10.5811 211.979 10.834 209.354 11.3398C 206.728 11.8216 204.56 12.5804 202.85 13.6162C 201.163 14.652 199.911 15.9769 199.092 17.5908C 198.273 19.2048 197.863 21.1318 197.863 23.3721L 197.863 28.9004L 240.283 28.9004L 240.283 33.1279L 197.863 33.1279L 197.863 56L 193.347 56L 193.347 22.6133C 193.347 20.0599 193.792 17.7715 194.684 15.748C 195.599 13.7246 197.044 12.0264 199.02 10.6533C 200.995 9.25618 203.524 8.19629 206.607 7.47363C 209.715 6.72689 213.461 6.35352 217.845 6.35352L 241.006 6.35352L 241.006 10.5811L 218.748 10.5811Z"/>
<path id="path1_fill" d="M 303.118 42.3057C 303.118 44.2327 302.865 45.9069 302.359 47.3281C 301.854 48.7493 301.143 49.9779 300.228 51.0137C 299.336 52.0254 298.252 52.8564 296.976 53.5068C 295.723 54.1331 294.338 54.639 292.82 55.0244C 291.303 55.3857 289.677 55.6387 287.942 55.7832C 286.208 55.9277 284.413 56 282.559 56L 253.905 56L 253.905 6.35352L 281.908 6.35352C 283.329 6.35352 284.751 6.41374 286.172 6.53418C 287.593 6.65462 288.954 6.88346 290.255 7.2207C 291.58 7.53385 292.796 7.97949 293.904 8.55762C 295.036 9.13574 296.012 9.89453 296.831 10.834C 297.674 11.7734 298.325 12.9056 298.782 14.2305C 299.264 15.5553 299.505 17.1211 299.505 18.9277C 299.505 20.5417 299.3 21.9388 298.891 23.1191C 298.505 24.2995 297.903 25.3112 297.084 26.1543C 296.289 26.9974 295.265 27.696 294.013 28.25C 292.76 28.7799 291.291 29.2015 289.604 29.5146C 292.013 29.6833 294.073 30.0928 295.783 30.7432C 297.493 31.3936 298.891 32.2607 299.975 33.3447C 301.059 34.4287 301.854 35.7295 302.359 37.2471C 302.865 38.7406 303.118 40.4268 303.118 42.3057ZM 295.277 19C 295.277 18.3014 295.229 17.6029 295.133 16.9043C 295.036 16.2057 294.82 15.5433 294.482 14.917C 294.145 14.2666 293.651 13.6644 293.001 13.1104C 292.375 12.5563 291.507 12.0866 290.399 11.7012C 289.291 11.2917 287.918 10.9785 286.28 10.7617C 284.666 10.5208 282.715 10.4004 280.427 10.4004L 258.422 10.4004L 258.422 27.7441L 280.427 27.7441C 283.679 27.7441 286.28 27.5153 288.231 27.0576C 290.183 26.5758 291.676 25.9375 292.712 25.1426C 293.772 24.3477 294.458 23.4202 294.771 22.3604C 295.109 21.3005 295.277 20.1803 295.277 19ZM 298.385 42.2334C 298.385 40.3545 298.06 38.7526 297.409 37.4277C 296.759 36.1029 295.759 35.0189 294.41 34.1758C 293.061 33.3327 291.327 32.7184 289.207 32.333C 287.087 31.9235 284.57 31.7188 281.655 31.7188L 258.422 31.7188L 258.422 51.917L 282.27 51.917C 285.281 51.917 287.81 51.7484 289.857 51.4111C 291.929 51.0498 293.591 50.4837 294.844 49.7129C 296.12 48.918 297.024 47.9062 297.554 46.6777C 298.108 45.4492 298.385 43.9678 298.385 42.2334ZM 360.786 56L 360.786 50.5078C 359.052 51.4473 357.076 52.3145 354.86 53.1094C 352.668 53.9043 350.344 54.5908 347.887 55.1689C 345.454 55.7471 342.949 56.1927 340.371 56.5059C 337.794 56.819 335.264 56.9756 332.783 56.9756C 329.555 56.9756 326.653 56.6865 324.075 56.1084C 321.522 55.5303 319.354 54.6751 317.571 53.543C 315.789 52.3867 314.416 50.9655 313.452 49.2793C 312.489 47.569 312.007 45.5938 312.007 43.3535C 312.007 41.1374 312.561 39.1862 313.669 37.5C 314.801 35.7897 316.403 34.3083 318.475 33.0557C 320.546 31.779 323.039 30.707 325.954 29.8398C 328.893 28.9486 332.169 28.2018 335.782 27.5996C 339.396 26.9733 343.298 26.4674 347.489 26.082C 351.705 25.6725 356.137 25.3353 360.786 25.0703L 360.786 21.2764C 360.786 19.7347 360.497 18.3737 359.919 17.1934C 359.341 16.013 358.534 14.9893 357.498 14.1221C 356.462 13.2308 355.246 12.4961 353.849 11.918C 352.451 11.3158 350.934 10.834 349.296 10.4727C 347.682 10.1113 345.972 9.8584 344.165 9.71387C 342.382 9.54525 340.588 9.46094 338.781 9.46094C 336.348 9.46094 334.132 9.58138 332.133 9.82227C 330.133 10.0632 328.267 10.4004 326.532 10.834C 324.798 11.2435 323.136 11.7253 321.546 12.2793C 319.956 12.8333 318.354 13.4235 316.74 14.0498L 316.74 8.77441C 320.089 7.88314 323.654 7.1123 327.436 6.46191C 331.242 5.78743 335.276 5.4502 339.54 5.4502C 343.153 5.4502 346.526 5.76335 349.657 6.38965C 352.789 6.99186 355.511 7.96745 357.823 9.31641C 360.136 10.6654 361.954 12.4118 363.279 14.5557C 364.604 16.6755 365.267 19.265 365.267 22.3242L 365.267 56L 360.786 56ZM 360.786 29.0811C 352.909 29.5146 346.176 30.1289 340.588 30.9238C 335.023 31.7188 330.471 32.6943 326.93 33.8506C 323.389 35.0068 320.787 36.3558 319.125 37.8975C 317.487 39.4391 316.668 41.1855 316.668 43.1367C 316.668 44.7266 317.065 46.1357 317.86 47.3643C 318.679 48.5928 319.848 49.6286 321.365 50.4717C 322.883 51.2907 324.726 51.917 326.894 52.3506C 329.062 52.7601 331.494 52.9648 334.192 52.9648C 335.782 52.9648 337.42 52.8805 339.106 52.7119C 340.817 52.5192 342.515 52.2663 344.201 51.9531C 345.887 51.6159 347.549 51.2305 349.188 50.7969C 350.826 50.3392 352.367 49.8454 353.812 49.3154C 355.258 48.7855 356.571 48.2194 357.751 47.6172C 358.955 47.015 359.967 46.4007 360.786 45.7744L 360.786 29.0811ZM 421.706 13.6885C 420.767 13.2308 419.683 12.749 418.454 12.2432C 417.226 11.7132 415.816 11.2435 414.227 10.834C 412.661 10.4245 410.89 10.0872 408.915 9.82227C 406.94 9.5332 404.748 9.38867 402.339 9.38867C 399.424 9.38867 396.823 9.55729 394.534 9.89453C 392.27 10.2318 390.343 10.7617 388.753 11.4844C 387.187 12.1829 385.983 13.0742 385.14 14.1582C 384.321 15.2422 383.911 16.5309 383.911 18.0244C 383.911 19.277 384.297 20.373 385.067 21.3125C 385.862 22.252 386.922 23.083 388.247 23.8057C 389.596 24.5283 391.162 25.1908 392.944 25.793C 394.751 26.3711 396.654 26.9251 398.653 27.4551C 400.677 27.9609 402.748 28.4788 404.868 29.0088C 407.012 29.5387 409.084 30.1169 411.083 30.7432C 413.106 31.3454 415.009 32.0319 416.792 32.8027C 418.599 33.5495 420.164 34.4287 421.489 35.4404C 422.838 36.4521 423.898 37.6084 424.669 38.9092C 425.464 40.21 425.861 41.7155 425.861 43.4258C 425.861 45.2806 425.512 46.9066 424.813 48.3037C 424.115 49.6768 423.163 50.8691 421.959 51.8809C 420.779 52.8685 419.382 53.6995 417.768 54.374C 416.178 55.0244 414.467 55.5423 412.637 55.9277C 410.83 56.3132 408.951 56.5781 407 56.7227C 405.073 56.8913 403.17 56.9756 401.291 56.9756C 396.979 56.9756 393.065 56.6624 389.548 56.0361C 386.055 55.4098 382.719 54.5547 379.539 53.4707L 379.539 47.9424C 382.815 49.8936 386.272 51.2305 389.909 51.9531C 393.571 52.6758 397.413 53.0371 401.436 53.0371C 404.278 53.0371 406.904 52.8685 409.312 52.5312C 411.721 52.194 413.805 51.6641 415.563 50.9414C 417.322 50.1947 418.683 49.2311 419.646 48.0508C 420.634 46.8704 421.128 45.4251 421.128 43.7148C 421.128 42.3418 420.73 41.1374 419.936 40.1016C 419.165 39.0658 418.105 38.1624 416.756 37.3916C 415.431 36.5967 413.865 35.8981 412.059 35.2959C 410.276 34.6937 408.385 34.1396 406.386 33.6338C 404.386 33.1038 402.315 32.598 400.171 32.1162C 398.051 31.6104 395.992 31.0684 393.992 30.4902C 391.993 29.9121 390.09 29.2617 388.283 28.5391C 386.501 27.8164 384.935 26.9733 383.586 26.0098C 382.261 25.0221 381.201 23.89 380.406 22.6133C 379.635 21.3366 379.25 19.8551 379.25 18.1689C 379.25 16.5068 379.563 15.0374 380.189 13.7607C 380.816 12.46 381.671 11.3398 382.755 10.4004C 383.863 9.46094 385.152 8.67806 386.621 8.05176C 388.09 7.40137 389.656 6.89551 391.318 6.53418C 393.005 6.14876 394.751 5.87174 396.558 5.70312C 398.364 5.53451 400.147 5.4502 401.905 5.4502C 403.832 5.4502 405.651 5.53451 407.361 5.70312C 409.096 5.87174 410.758 6.10059 412.348 6.38965C 413.962 6.65462 415.527 6.96777 417.045 7.3291C 418.587 7.69043 420.14 8.07585 421.706 8.48535L 421.706 13.6885ZM 489.889 53.3984C 487.865 54.0247 485.986 54.5667 484.252 55.0244C 482.518 55.458 480.807 55.8073 479.121 56.0723C 477.435 56.3613 475.713 56.5661 473.954 56.6865C 472.22 56.8311 470.305 56.9033 468.209 56.9033C 463.343 56.9033 458.947 56.3132 455.021 55.1328C 451.094 53.9525 447.746 52.2663 444.976 50.0742C 442.229 47.8581 440.11 45.1842 438.616 42.0527C 437.123 38.9212 436.376 35.4043 436.376 31.502C 436.376 27.7201 437.087 24.2513 438.508 21.0957C 439.953 17.9401 441.965 15.2301 444.542 12.9658C 447.119 10.7015 450.203 8.94303 453.792 7.69043C 457.381 6.43783 461.344 5.81152 465.68 5.81152C 470.184 5.81152 474.195 6.41374 477.712 7.61816C 481.229 8.82259 484.192 10.5449 486.601 12.7852C 489.009 15.0254 490.84 17.7474 492.093 20.9512C 493.345 24.1309 493.972 27.7201 493.972 31.7188L 493.972 32.8389L 441.037 32.8389C 441.302 35.9222 442.073 38.7044 443.35 41.1855C 444.626 43.6667 446.433 45.7744 448.77 47.5088C 451.13 49.2432 454.021 50.5801 457.441 51.5195C 460.886 52.4349 464.897 52.8926 469.474 52.8926C 471.425 52.8926 473.4 52.7601 475.399 52.4951C 477.399 52.2301 479.314 51.8809 481.145 51.4473C 482.975 50.9896 484.649 50.4837 486.167 49.9297C 487.685 49.3516 488.925 48.7614 489.889 48.1592L 489.889 53.3984ZM 489.527 28.9004C 489.359 26.3711 488.793 23.9622 487.829 21.6738C 486.866 19.3613 485.42 17.3258 483.493 15.5674C 481.59 13.8089 479.157 12.4118 476.194 11.376C 473.256 10.3402 469.727 9.82227 465.607 9.82227C 461.729 9.82227 458.333 10.3402 455.418 11.376C 452.503 12.4118 450.034 13.8089 448.011 15.5674C 445.987 17.3018 444.397 19.3252 443.241 21.6377C 442.085 23.9261 441.35 26.347 441.037 28.9004L 489.527 28.9004ZM 561.396 31.1406C 561.396 34.3203 561.058 37.1507 560.384 39.6318C 559.733 42.0889 558.806 44.2327 557.602 46.0635C 556.397 47.8942 554.928 49.4479 553.193 50.7246C 551.483 52.0013 549.568 53.0251 547.448 53.7959C 545.353 54.5667 543.064 55.1328 540.583 55.4941C 538.126 55.8314 535.536 56 532.814 56L 507.196 56L 507.196 6.35352L 532.742 6.35352C 536.813 6.35352 540.595 6.75098 544.088 7.5459C 547.581 8.34082 550.604 9.70182 553.157 11.6289C 555.735 13.5319 557.746 16.0732 559.191 19.2529C 560.661 22.4326 561.396 26.3952 561.396 31.1406ZM 556.734 31.1406C 556.734 28.4427 556.469 26.0579 555.939 23.9863C 555.41 21.9147 554.651 20.1201 553.663 18.6025C 552.675 17.0609 551.471 15.7721 550.05 14.7363C 548.629 13.7005 547.027 12.8695 545.244 12.2432C 543.462 11.5928 541.522 11.1351 539.427 10.8701C 537.331 10.6051 535.103 10.4727 532.742 10.4727L 511.713 10.4727L 511.713 51.8447L 532.742 51.8447C 536.283 51.8447 539.523 51.5316 542.462 50.9053C 545.401 50.2549 547.918 49.1468 550.014 47.5811C 552.133 45.9912 553.784 43.8714 554.964 41.2217C 556.144 38.5479 556.734 35.1875 556.734 31.1406Z"/>
</defs>
</svg>
