<svg width="422" height="134" viewBox="0 0 422 134" version="1.1" xmlns="http://www.w3.org/2000/svg" xmlns:xlink="http://www.w3.org/1999/xlink">
<title>logo</title>
<desc>Created using Figma</desc>
<g id="Canvas" transform="translate(4476 9156)">
<g id="logo">
<g id="Group 3.22">
<g id="Ellipse">
<use xlink:href="#path0_fill" transform="translate(-4154 -9156)" fill="#3E2D3D"/>
</g>
<g id="F">
<use xlink:href="#path1_fill" transform="translate(-4119 -9121)" fill="#FFFFFF"/>
</g>
</g>
<g id="Group 3.23">
<g id="Ellipse">
<use xlink:href="#path0_fill" transform="translate(-4261 -9156)" fill="#D95E16"/>
</g>
<g id="A">
<use xlink:href="#path2_fill" transform="translate(-4226 -9121)" fill="#FFFFFF"/>
</g>
</g>
<g id="Group 3.24">
<g id="Ellipse">
<use xlink:href="#path0_fill" transform="translate(-4369 -9156)" fill="#6CB33E"/>
</g>
<g id="E">
<use xlink:href="#path3_fill" transform="translate(-4334 -9121)" fill="#FFFFFF"/>
</g>
</g>
<g id="Group 2.8">
<path d="M -4476 -9156L -4376 -9156L -4376 -9056L -4476 -9056L -4476 -9156Z" fill="#FFFFFF"/>
<g id="Ellipse">
<use xlink:href="#path0_fill" transform="translate(-4476 -9156)" fill="#448C7C"/>
</g>
<g id="L">
<use xlink:href="#path4_fill" transform="translate(-4441 -9124)" fill="#FFFFFF"/>
</g>
</g>
<g id="Rectangle 2">
<use xlink:href="#path5_fill" transform="translate(-4470 -9035)" fill="#A49FA6"/>
</g>
<g id="S T Y L">
<use xlink:href="#path6_fill" transform="translate(-4140 -9048)" fill="#A49FA6"/>
</g>
</g>
</g>
<defs>
<path id="path0_fill" d="M 100 50C 100 77.6142 77.6142 100 50 100C 22.3858 100 0 77.6142 0 50C 0 22.3858 22.3858 0 50 0C 77.6142 0 100 22.3858 100 50Z"/>
<path id="path1_fill" d="M 1.45161 30C 1.05735 30 0.716846 29.8857 0.430108 29.6571C 0.143369 29.4286 0 29.1571 0 28.8429L 0 1.15714C 0 0.842857 0.143369 0.571428 0.430108 0.342857C 0.716846 0.114286 1.05735 0 1.45161 0L 28.5484 0C 28.9427 0 29.2832 0.114286 29.5699 0.342857C 29.8566 0.571428 30 0.842857 30 1.15714L 30 7.67143C 30 7.98571 29.8566 8.25714 29.5699 8.48571C 29.2832 8.71429 28.9427 8.82857 28.5484 8.82857L 13.172 8.82857L 13.172 12L 27.4731 12C 27.8674 12 28.2079 12.1143 28.4946 12.3429C 28.7814 12.5714 28.9247 12.8429 28.9247 13.1571L 28.9247 19.6286C 28.9247 19.9429 28.7814 20.2143 28.4946 20.4429C 28.2079 20.6714 27.8674 20.7857 27.4731 20.7857L 13.172 20.7857L 13.172 28.8429C 13.172 29.1571 13.0287 29.4286 12.7419 29.6571C 12.4552 29.8857 12.1147 30 11.7204 30L 1.45161 30Z"/>
<path id="path2_fill" d="M 0.874172 30C 0.635762 30 0.423841 29.9143 0.238411 29.7429C 0.0794702 29.5429 0 29.3143 0 29.0571C 0 28.9429 0.013245 28.8429 0.0397351 28.7571L 8.90066 1.41429C 9.00662 1.04286 9.2053 0.714285 9.49669 0.428571C 9.78808 0.142857 10.1854 0 10.6887 0L 19.3113 0C 19.8146 0 20.2119 0.142857 20.5033 0.428571C 20.7947 0.714285 20.9934 1.04286 21.0993 1.41429L 29.9603 28.7571C 29.9868 28.8429 30 28.9429 30 29.0571C 30 29.3143 29.9073 29.5429 29.7219 29.7429C 29.5629 29.9143 29.3642 30 29.1258 30L 21.7748 30C 20.9801 30 20.4636 29.6429 20.2252 28.9286L 19.2715 26.1L 10.7285 26.1L 9.77483 28.9286C 9.53642 29.6429 9.01987 30 8.22517 30L 0.874172 30ZM 17.245 17.7429L 14.9801 9.77143L 12.755 17.7429L 17.245 17.7429Z"/>
<path id="path3_fill" d="M 1.4087 30C 1.02609 30 0.695652 29.8857 0.417391 29.6571C 0.13913 29.4286 0 29.1571 0 28.8429L 0 1.15714C 0 0.842857 0.13913 0.571428 0.417391 0.342857C 0.695652 0.114286 1.02609 0 1.4087 0L 28.1739 0C 28.5565 0 28.887 0.114286 29.1652 0.342857C 29.4435 0.571428 29.5826 0.842857 29.5826 1.15714L 29.5826 7.2C 29.5826 7.51429 29.4435 7.78571 29.1652 8.01428C 28.887 8.24286 28.5565 8.35714 28.1739 8.35714L 12.5217 8.35714L 12.5217 11.0571L 27.0261 11.0571C 27.4087 11.0571 27.7391 11.1714 28.0174 11.4C 28.2957 11.6286 28.4348 11.9 28.4348 12.2143L 28.4348 17.7857C 28.4348 18.1 28.2957 18.3714 28.0174 18.6C 27.7391 18.8286 27.4087 18.9429 27.0261 18.9429L 12.5217 18.9429L 12.5217 21.6429L 28.5913 21.6429C 28.9739 21.6429 29.3043 21.7571 29.5826 21.9857C 29.8609 22.2143 30 22.4857 30 22.8L 30 28.8429C 30 29.1571 29.8609 29.4286 29.5826 29.6571C 29.3043 29.8857 28.9739 30 28.5913 30L 1.4087 30Z"/>
<path id="path4_fill" d="M 1.45161 30C 1.05735 30 0.716846 29.8857 0.430108 29.6571C 0.143369 29.4286 0 29.1571 0 28.8429L 0 1.15714C 0 0.842857 0.143369 0.571428 0.430108 0.342857C 0.716846 0.114286 1.05735 0 1.45161 0L 12.2043 0C 12.5986 0 12.9391 0.114286 13.2258 0.342857C 13.5125 0.571428 13.6559 0.842857 13.6559 1.15714L 13.6559 21.2143L 28.5484 21.2143C 28.9427 21.2143 29.2832 21.3286 29.5699 21.5571C 29.8566 21.7857 30 22.0571 30 22.3714L 30 28.8429C 30 29.1571 29.8566 29.4286 29.5699 29.6571C 29.2832 29.8857 28.9427 30 28.5484 30L 1.45161 30Z"/>
<path id="path5_fill" d="M 0 0L 322 0L 322 7L 0 7L 0 0Z"/>
<path id="path6_fill" d="M 8.424 25.27C 6.93 25.27 5.634 25.036 4.536 24.568C 3.456 24.1 2.628 23.488 2.052 22.732C 1.476 21.958 1.17 21.13 1.134 20.248C 1.134 20.104 1.188 19.978 1.296 19.87C 1.422 19.744 1.566 19.681 1.728 19.681L 3.105 19.681C 3.447 19.681 3.681 19.861 3.807 20.221C 3.969 20.977 4.428 21.625 5.184 22.165C 5.958 22.705 7.038 22.975 8.424 22.975C 9.918 22.975 11.043 22.714 11.799 22.192C 12.555 21.652 12.933 20.905 12.933 19.951C 12.933 19.339 12.744 18.844 12.366 18.466C 12.006 18.088 11.466 17.755 10.746 17.467C 10.026 17.179 8.946 16.819 7.506 16.387C 6.102 15.991 4.986 15.568 4.158 15.118C 3.33 14.668 2.709 14.11 2.295 13.444C 1.881 12.778 1.674 11.941 1.674 10.933C 1.674 9.961 1.935 9.088 2.457 8.314C 2.997 7.54 3.762 6.937 4.752 6.505C 5.742 6.055 6.921 5.83 8.289 5.83C 9.693 5.83 10.899 6.082 11.907 6.586C 12.915 7.072 13.68 7.693 14.202 8.449C 14.724 9.205 15.003 9.961 15.039 10.717C 15.039 10.861 14.985 10.987 14.877 11.095C 14.787 11.203 14.652 11.257 14.472 11.257L 13.041 11.257C 12.663 11.257 12.429 11.086 12.339 10.744C 12.231 9.988 11.808 9.367 11.07 8.881C 10.332 8.377 9.405 8.125 8.289 8.125C 7.065 8.125 6.102 8.359 5.4 8.827C 4.698 9.295 4.347 9.988 4.347 10.906C 4.347 11.518 4.509 12.022 4.833 12.418C 5.175 12.814 5.688 13.165 6.372 13.471C 7.056 13.759 8.055 14.092 9.369 14.47C 10.899 14.884 12.105 15.316 12.987 15.766C 13.869 16.198 14.526 16.747 14.958 17.413C 15.39 18.061 15.606 18.889 15.606 19.897C 15.606 21.571 14.958 22.885 13.662 23.839C 12.366 24.793 10.62 25.27 8.424 25.27ZM 29.8295 25C 29.6495 25 29.4965 24.946 29.3705 24.838C 29.2625 24.712 29.2085 24.559 29.2085 24.379L 29.2085 8.503L 24.0245 8.503C 23.8445 8.503 23.6915 8.449 23.5655 8.341C 23.4575 8.215 23.4035 8.062 23.4035 7.882L 23.4035 6.748C 23.4035 6.568 23.4575 6.415 23.5655 6.289C 23.6915 6.163 23.8445 6.1 24.0245 6.1L 37.0385 6.1C 37.2365 6.1 37.3895 6.163 37.4975 6.289C 37.6235 6.397 37.6865 6.55 37.6865 6.748L 37.6865 7.882C 37.6865 8.062 37.6235 8.215 37.4975 8.341C 37.3715 8.449 37.2185 8.503 37.0385 8.503L 31.8815 8.503L 31.8815 24.379C 31.8815 24.559 31.8185 24.712 31.6925 24.838C 31.5665 24.946 31.4135 25 31.2335 25L 29.8295 25ZM 51.5249 25C 51.3449 25 51.1919 24.946 51.0659 24.838C 50.9579 24.712 50.9039 24.559 50.9039 24.379L 50.9039 18.007L 44.3969 6.991C 44.3969 6.955 44.3879 6.901 44.3699 6.829C 44.3339 6.757 44.3159 6.694 44.3159 6.64C 44.3159 6.496 44.3699 6.37 44.4779 6.262C 44.5859 6.154 44.7119 6.1 44.8559 6.1L 46.2599 6.1C 46.5659 6.1 46.7999 6.253 46.9619 6.559L 52.2269 15.307L 57.4919 6.559C 57.6899 6.253 57.9329 6.1 58.2209 6.1L 59.5979 6.1C 59.7599 6.1 59.8949 6.154 60.0029 6.262C 60.1109 6.37 60.1649 6.496 60.1649 6.64C 60.1649 6.73 60.1289 6.847 60.0569 6.991L 53.5769 18.007L 53.5769 24.379C 53.5769 24.559 53.5139 24.712 53.3879 24.838C 53.2619 24.946 53.1089 25 52.9289 25L 51.5249 25ZM 69.7845 25C 69.6045 25 69.4515 24.946 69.3255 24.838C 69.2175 24.712 69.1635 24.559 69.1635 24.379L 69.1635 6.721C 69.1635 6.541 69.2175 6.397 69.3255 6.289C 69.4515 6.163 69.6045 6.1 69.7845 6.1L 71.2155 6.1C 71.3955 6.1 71.5395 6.163 71.6475 6.289C 71.7735 6.397 71.8365 6.541 71.8365 6.721L 71.8365 22.651L 80.8005 22.651C 80.9985 22.651 81.1515 22.714 81.2595 22.84C 81.3855 22.948 81.4485 23.101 81.4485 23.299L 81.4485 24.379C 81.4485 24.559 81.3855 24.712 81.2595 24.838C 81.1335 24.946 80.9805 25 80.8005 25L 69.7845 25Z"/>
</defs>
</svg>
