<svg width="1702" height="257" viewBox="0 0 1702 257" version="1.1" xmlns="http://www.w3.org/2000/svg" xmlns:xlink="http://www.w3.org/1999/xlink">
<title>logo</title>
<desc>Created using Figma</desc>
<g id="Canvas" transform="translate(-13574 10856)">
<g id="logo">
<g id="Sample 4">
<g id="l__base">
<mask id="mask0_outline_ins">
<use xlink:href="#path0_fill" fill="white" transform="translate(13576 -10801)"/>
</mask>
<g mask="url(#mask0_outline_ins)">
<use xlink:href="#path1_stroke_2x" transform="translate(13576 -10801)" fill="url(#paint0_linear)"/>
</g>
</g>
<g id="l__01">
<g id="Vector">
<use xlink:href="#path2_stroke" transform="translate(13576 -10826.5)" fill="url(#paint1_linear)"/>
</g>
<g id="Vector">
<use xlink:href="#path3_stroke" transform="matrix(-1 0 0 1 13776 -10827)" fill="url(#paint2_linear)"/>
</g>
</g>
<g id="l__02">
<g id="Vector">
<use xlink:href="#path4_stroke" transform="translate(13576 -10851.5)" fill="url(#paint3_linear)"/>
</g>
<g id="Vector">
<use xlink:href="#path5_stroke" transform="matrix(-1 0 0 1 13776 -10852)" fill="url(#paint4_linear)"/>
</g>
</g>
</g>
<g id="LEAFBASED">
<use xlink:href="#path6_fill" transform="translate(13819 -10873)" fill="#292929"/>
</g>
</g>
</g>
<defs>
<linearGradient id="paint0_linear" x1="0" y1="0" x2="1" y2="0" gradientUnits="userSpaceOnUse" gradientTransform="matrix(1.22465e-14 200 -200 1.22465e-14 200 -1.22465e-14)">
<stop offset="0" stop-color="#474747"/>
<stop offset="1"/>
</linearGradient>
<linearGradient id="paint1_linear" x1="0" y1="0" x2="1" y2="0" gradientUnits="userSpaceOnUse" gradientTransform="matrix(6.12323e-15 225.5 -100 1.38079e-14 100 -1.38079e-14)">
<stop offset="0" stop-color="#474747"/>
<stop offset="1"/>
</linearGradient>
<linearGradient id="paint2_linear" x1="0" y1="0" x2="1" y2="0" gradientUnits="userSpaceOnUse" gradientTransform="matrix(6.12323e-15 226 -100 1.38385e-14 100 -1.38385e-14)">
<stop offset="0" stop-color="#474747"/>
<stop offset="1"/>
</linearGradient>
<linearGradient id="paint3_linear" x1="0" y1="0" x2="1" y2="0" gradientUnits="userSpaceOnUse" gradientTransform="matrix(6.12323e-15 250.5 -100 1.53387e-14 100 -1.53387e-14)">
<stop offset="0" stop-color="#474747"/>
<stop offset="1"/>
</linearGradient>
<linearGradient id="paint4_linear" x1="0" y1="0" x2="1" y2="0" gradientUnits="userSpaceOnUse" gradientTransform="matrix(6.12323e-15 251 -100 1.53693e-14 100 -1.53693e-14)">
<stop offset="0" stop-color="#474747"/>
<stop offset="1"/>
</linearGradient>
<path id="path0_fill" d="M 200 100C 200 155.228 155.228 200 100 200C 44.7715 200 0 155.228 0 100C 0 44.7715 44.7715 0 100 0C 155.228 0 200 44.7715 200 100Z"/>
<path id="path1_stroke_2x" d="M 196 100C 196 153.019 153.019 196 100 196L 100 204C 157.438 204 204 157.438 204 100L 196 100ZM 100 196C 46.9807 196 4 153.019 4 100L -4 100C -4 157.438 42.5624 204 100 204L 100 196ZM 4 100C 4 46.9807 46.9807 4 100 4L 100 -4C 42.5624 -4 -4 42.5624 -4 100L 4 100ZM 100 4C 153.019 4 196 46.9807 196 100L 204 100C 204 42.5624 157.438 -4 100 -4L 100 4Z"/>
<path id="path2_stroke" d="M 100 0L 102 0L 102 -3.00924L 99.2255 -1.84396L 100 0ZM 100 225.5L 100 227.5L 102 227.5L 102 225.5L 100 225.5ZM 99.2255 -1.84396C 82.3506 5.2435 57.1171 20.0584 36.071 41.5507C 15.0214 63.0466 -2 91.396 -2 125.5L 2 125.5C 2 92.804 18.312 65.4034 38.929 44.3493C 59.5495 23.2916 84.3161 8.7565 100.774 1.84396L 99.2255 -1.84396ZM -2 125.5C -2 178.026 41.3185 227.5 100 227.5L 100 223.5C 43.6815 223.5 2 175.974 2 125.5L -2 125.5ZM 102 225.5L 102 0L 98 0L 98 225.5L 102 225.5Z"/>
<path id="path3_stroke" d="M 100 0L 102 0L 102 -3.01182L 99.2241 -1.84335L 100 0ZM 100 226L 100 228L 102 228L 102 226L 100 226ZM 99.2241 -1.84335C 82.3488 5.25996 57.1154 20.1078 36.0695 41.6475C 15.0198 63.1911 -2 91.6019 -2 125.778L 2 125.778C 2 93.0066 18.3135 65.5437 38.9305 44.443C 59.5513 23.3383 84.3178 8.77108 100.776 1.84335L 99.2241 -1.84335ZM -2 125.778C -2 178.414 41.3144 228 100 228L 100 224C 43.6856 224 2 176.371 2 125.778L -2 125.778ZM 102 226L 102 0L 98 0L 98 226L 102 226Z"/>
<path id="path4_stroke" d="M 100 0L 102 0L 102 -3.31934L 99.0654 -1.76819L 100 0ZM 100 250.5L 100 252.5L 102 252.5L 102 250.5L 100 250.5ZM 99.0654 -1.76819C 81.2577 7.64447 56.047 28.7827 35.2865 55.9224C 14.5297 83.0572 -2 116.481 -2 150.5L 2 150.5C 2 117.719 17.9703 85.1428 38.4635 58.3526C 58.953 31.5673 83.7423 10.8555 100.935 1.76819L 99.0654 -1.76819ZM -2 150.5C -2 203.026 41.3185 252.5 100 252.5L 100 248.5C 43.6815 248.5 2 200.974 2 150.5L -2 150.5ZM 102 250.5L 102 0L 98 0L 98 250.5L 102 250.5Z"/>
<path id="path5_stroke" d="M 100 0L 102 0L 102 -3.32244L 99.0639 -1.76742L 100 0ZM 100 251L 100 253L 102 253L 102 251L 100 251ZM 99.0639 -1.76742C 81.256 7.66411 56.0455 28.8445 35.2853 56.0379C 14.5286 83.2268 -2 116.716 -2 150.8L 2 150.8C 2 117.952 17.9714 85.309 38.4647 58.4652C 58.9545 31.626 83.744 10.8728 100.936 1.76742L 99.0639 -1.76742ZM -2 150.8C -2 203.425 41.3148 253 100 253L 100 249C 43.6852 249 2 201.381 2 150.8L -2 150.8ZM 102 251L 102 0L 98 0L 98 251L 102 251Z"/>
<path id="path6_fill" d="M 29.158 63.7L 41.347 63.7L 41.347 220.006L 137.664 220.006L 137.664 231L 29.158 231L 29.158 63.7ZM 284.401 220.006L 284.401 231L 168.964 231L 168.964 63.7L 280.816 63.7L 280.816 74.694L 181.153 74.694L 181.153 140.658L 270.3 140.658L 270.3 151.413L 181.153 151.413L 181.153 220.006L 284.401 220.006ZM 432.329 183.917L 335.295 183.917L 314.024 231L 300.879 231L 377.837 63.7L 390.026 63.7L 466.984 231L 453.839 231L 432.329 183.917ZM 427.788 173.64L 383.812 77.084L 340.075 173.64L 427.788 173.64ZM 509.544 74.694L 509.544 146.155L 598.691 146.155L 598.691 157.149L 509.544 157.149L 509.544 231L 497.355 231L 497.355 63.7L 609.207 63.7L 609.207 74.694L 509.544 74.694ZM 747.555 144.721C 759.505 146.952 768.587 151.652 774.801 158.822C 781.174 165.992 784.361 175.313 784.361 186.785C 784.361 200.966 779.182 211.88 768.826 219.528C 758.469 227.176 743.093 231 722.699 231L 648.131 231L 648.131 63.7L 717.919 63.7C 736.083 63.7 750.184 67.4443 760.222 74.933C 770.419 82.2623 775.518 92.7783 775.518 106.481C 775.518 116.041 772.968 124.087 767.87 130.62C 762.93 137.153 756.159 141.853 747.555 144.721ZM 660.32 74.216L 660.32 140.897L 717.441 140.897C 732.099 140.897 743.332 138.109 751.14 132.532C 759.106 126.796 763.09 118.431 763.09 107.437C 763.09 96.6023 759.106 88.3967 751.14 82.82C 743.332 77.084 732.099 74.216 717.441 74.216L 660.32 74.216ZM 722.699 220.484C 738.951 220.484 751.219 217.696 759.505 212.119C 767.949 206.383 772.172 197.62 772.172 185.829C 772.172 174.038 767.949 165.355 759.505 159.778C 751.219 154.201 738.951 151.413 722.699 151.413L 660.32 151.413L 660.32 220.484L 722.699 220.484ZM 931.334 183.917L 834.3 183.917L 813.029 231L 799.884 231L 876.842 63.7L 889.031 63.7L 965.989 231L 952.844 231L 931.334 183.917ZM 926.793 173.64L 882.817 77.084L 839.08 173.64L 926.793 173.64ZM 1040.34 232.195C 1028.07 232.195 1016.36 230.124 1005.2 225.981C 994.21 221.679 985.606 216.182 979.392 209.49L 984.889 200.408C 990.784 206.622 998.671 211.721 1008.55 215.704C 1018.59 219.528 1029.1 221.44 1040.1 221.44C 1056.03 221.44 1068.06 218.413 1076.19 212.358C 1084.31 206.303 1088.38 198.416 1088.38 188.697C 1088.38 181.208 1086.23 175.233 1081.92 170.772C 1077.62 166.311 1072.28 162.885 1065.91 160.495C 1059.54 158.105 1050.93 155.635 1040.1 153.086C 1027.83 150.059 1017.95 147.111 1010.46 144.243C 1003.13 141.375 996.839 136.993 991.581 131.098C 986.482 125.043 983.933 116.997 983.933 106.959C 983.933 98.833 986.084 91.424 990.386 84.732C 994.688 77.8807 1001.22 72.4633 1009.98 68.48C 1018.91 64.4967 1029.98 62.505 1043.21 62.505C 1052.45 62.505 1061.53 63.8593 1070.45 66.568C 1079.37 69.2767 1087.1 72.9413 1093.63 77.562L 1089.09 87.361C 1082.4 82.7403 1074.99 79.235 1066.87 76.845C 1058.9 74.455 1051.01 73.26 1043.21 73.26C 1027.75 73.26 1016.04 76.367 1008.07 82.581C 1000.11 88.795 996.122 96.8413 996.122 106.72C 996.122 114.209 998.273 120.184 1002.58 124.645C 1006.88 129.106 1012.21 132.532 1018.59 134.922C 1024.96 137.312 1033.65 139.861 1044.64 142.57C 1056.91 145.597 1066.71 148.545 1074.04 151.413C 1081.37 154.281 1087.58 158.663 1092.68 164.558C 1097.94 170.294 1100.57 178.101 1100.57 187.98C 1100.57 196.106 1098.33 203.515 1093.87 210.207C 1089.57 216.899 1082.88 222.237 1073.8 226.22C 1064.72 230.203 1053.56 232.195 1040.34 232.195ZM 1257.44 220.006L 1257.44 231L 1142 231L 1142 63.7L 1253.85 63.7L 1253.85 74.694L 1154.19 74.694L 1154.19 140.658L 1243.34 140.658L 1243.34 151.413L 1154.19 151.413L 1154.19 220.006L 1257.44 220.006ZM 1301.88 63.7L 1368.08 63.7C 1385.45 63.7 1400.83 67.285 1414.21 74.455C 1427.75 81.625 1438.27 91.5833 1445.76 104.33C 1453.25 116.917 1456.99 131.257 1456.99 147.35C 1456.99 163.443 1453.25 177.862 1445.76 190.609C 1438.27 203.196 1427.75 213.075 1414.21 220.245C 1400.83 227.415 1385.45 231 1368.08 231L 1301.88 231L 1301.88 63.7ZM 1367.13 220.006C 1382.58 220.006 1396.21 216.979 1408 210.924C 1419.79 204.71 1428.87 196.106 1435.24 185.112C 1441.62 174.118 1444.8 161.531 1444.8 147.35C 1444.8 133.169 1441.62 120.582 1435.24 109.588C 1428.87 98.594 1419.79 90.0697 1408 84.015C 1396.21 77.801 1382.58 74.694 1367.13 74.694L 1314.07 74.694L 1314.07 220.006L 1367.13 220.006Z"/>
</defs>
</svg>
