<svg width="230" height="43" viewBox="0 0 230 43" version="1.1" xmlns="http://www.w3.org/2000/svg" xmlns:xlink="http://www.w3.org/1999/xlink">
<title>Logo</title>
<desc>Created using Figma</desc>
<g id="Canvas" transform="translate(-19170 3833)">
<g id="Logo">
<g id="LEAFBASED">
<use xlink:href="#path0_fill" transform="translate(19217 -3828)" fill="#91BD35"/>
<use xlink:href="#path1_fill" transform="translate(19217 -3828)" fill="#B8B8B8"/>
</g>
<g id="Leaf">
<g id="Ellipse 2" filter="url(#filter0_d)">
<use xlink:href="#path2_fill" transform="translate(19174 -3833)" fill="#FFFFFF"/>
<mask id="mask0_outline_ins">
<use xlink:href="#path2_fill" fill="white" transform="translate(19174 -3833)"/>
</mask>
<g mask="url(#mask0_outline_ins)">
<use xlink:href="#path3_stroke_2x" transform="translate(19174 -3833)" fill="#FFFFFF"/>
</g>
</g>
<g id="yellow">
<g id="Vector">
<use xlink:href="#path4_fill" transform="translate(19179 -3829.94)" fill="#91BD35"/>
<use xlink:href="#path5_stroke" transform="translate(19179 -3829.94)" fill="#7EA823"/>
</g>
<g id="Vector">
<use xlink:href="#path6_fill" transform="matrix(-1 0 0 1 19204 -3830)" fill="#6E941E"/>
<use xlink:href="#path7_stroke" transform="matrix(-1 0 0 1 19204 -3830)" fill="#889E49"/>
</g>
</g>
</g>
</g>
</g>
<defs>
<filter id="filter0_d" filterUnits="userSpaceOnUse" x="19170" y="-3833" width="43" height="43" color-interpolation-filters="sRGB">
<feFlood flood-opacity="0" result="BackgroundImageFix"/>
<feColorMatrix in="SourceAlpha" type="matrix" values="0 0 0 0 0 0 0 0 0 0 0 0 0 0 0 0 0 0 255 0"/>
<feOffset dx="0" dy="4"/>
<feGaussianBlur stdDeviation="2"/>
<feColorMatrix type="matrix" values="0 0 0 0 0 0 0 0 0 0 0 0 0 0 0 0 0 0 0.25 0"/>
<feBlend mode="normal" in2="BackgroundImageFix" result="effect1_dropShadow"/>
<feBlend mode="normal" in="SourceGraphic" in2="effect1_dropShadow" result="shape"/>
</filter>
<path id="path0_fill" d="M 2.01 5.42L 6.36 5.42L 6.36 22.22L 17.46 22.22L 17.46 26L 2.01 26L 2.01 5.42ZM 20.3498 5.42L 36.5198 5.42L 36.5198 9.11L 24.6998 9.11L 24.6998 13.64L 35.1998 13.64L 35.1998 17.33L 24.6998 17.33L 24.6998 22.31L 36.6998 22.31L 36.6998 26L 20.3498 26L 20.3498 5.42ZM 46.4496 5.42L 51.9096 5.42L 59.9496 26L 55.2096 26L 53.7396 22.07L 44.3796 22.07L 42.9096 26L 38.4096 26L 46.4496 5.42ZM 52.3596 18.44L 50.4096 13.22C 50.2496 12.8 50.0196 12.1 49.7196 11.12C 49.4196 10.14 49.2196 9.49 49.1196 9.17L 48.9696 9.17C 48.8696 9.49 48.6696 10.14 48.3696 11.12C 48.0696 12.1 47.8396 12.8 47.6796 13.22L 45.7296 18.44L 52.3596 18.44ZM 62.01 5.42L 76.92 5.42L 76.92 9.11L 66.36 9.11L 66.36 14.18L 75.81 14.18L 75.81 17.87L 66.36 17.87L 66.36 26L 62.01 26L 62.01 5.42Z"/>
<path id="path1_fill" d="M 80.3498 5.42L 92.1398 5.42C 93.2198 5.42 94.1998 5.64 95.0798 6.08C 95.9598 6.5 96.6498 7.1 97.1498 7.88C 97.6498 8.64 97.8998 9.52 97.8998 10.52C 97.8998 11.66 97.5798 12.65 96.9398 13.49C 96.3198 14.31 95.5198 14.88 94.5398 15.2L 94.5398 15.32C 95.6998 15.54 96.6398 16.11 97.3598 17.03C 98.0998 17.93 98.4698 19 98.4698 20.24C 98.4698 22.1 97.8698 23.53 96.6698 24.53C 95.4898 25.51 93.9798 26 92.1398 26L 80.3498 26L 80.3498 5.42ZM 90.9098 13.64C 91.7098 13.64 92.3298 13.44 92.7698 13.04C 93.2098 12.62 93.4298 12.09 93.4298 11.45C 93.4298 10.69 93.2198 10.11 92.7998 9.71C 92.3998 9.31 91.8398 9.11 91.1198 9.11L 84.7298 9.11L 84.7298 13.64L 90.9098 13.64ZM 91.4198 22.31C 92.1798 22.31 92.7998 22.09 93.2798 21.65C 93.7598 21.21 93.9998 20.58 93.9998 19.76C 93.9998 19.02 93.7598 18.42 93.2798 17.96C 92.7998 17.5 92.0998 17.27 91.1798 17.27L 84.7298 17.27L 84.7298 22.31L 91.4198 22.31ZM 108.09 5.42L 113.55 5.42L 121.59 26L 116.85 26L 115.38 22.07L 106.02 22.07L 104.55 26L 100.05 26L 108.09 5.42ZM 114 18.44L 112.05 13.22C 111.89 12.8 111.66 12.1 111.36 11.12C 111.06 10.14 110.86 9.49 110.76 9.17L 110.61 9.17C 110.51 9.49 110.31 10.14 110.01 11.12C 109.71 12.1 109.48 12.8 109.32 13.22L 107.37 18.44L 114 18.44ZM 131.541 26.36C 129.961 26.36 128.511 26.12 127.191 25.64C 125.891 25.14 124.851 24.41 124.071 23.45C 123.291 22.49 122.901 21.33 122.901 19.97L 122.931 19.31L 127.341 19.31L 127.311 19.79C 127.311 20.67 127.701 21.37 128.481 21.89C 129.261 22.41 130.351 22.67 131.751 22.67C 133.231 22.67 134.301 22.48 134.961 22.1C 135.621 21.7 135.951 21.17 135.951 20.51C 135.951 19.93 135.731 19.45 135.291 19.07C 134.871 18.67 134.331 18.36 133.671 18.14C 133.031 17.9 132.141 17.62 131.001 17.3C 129.381 16.84 128.071 16.4 127.071 15.98C 126.071 15.56 125.211 14.94 124.491 14.12C 123.771 13.28 123.411 12.18 123.411 10.82C 123.411 8.94 124.171 7.51 125.691 6.53C 127.211 5.55 129.231 5.06 131.751 5.06C 134.131 5.06 136.071 5.57 137.571 6.59C 139.091 7.59 139.851 9.1 139.851 11.12L 139.851 11.48L 135.531 11.48L 135.531 11.21C 135.531 10.45 135.181 9.85 134.481 9.41C 133.801 8.97 132.871 8.75 131.691 8.75C 130.431 8.75 129.461 8.92 128.781 9.26C 128.121 9.6 127.791 10.07 127.791 10.67C 127.791 11.13 127.991 11.53 128.391 11.87C 128.791 12.19 129.291 12.46 129.891 12.68C 130.491 12.88 131.341 13.13 132.441 13.43C 134.081 13.87 135.421 14.31 136.461 14.75C 137.521 15.17 138.431 15.8 139.191 16.64C 139.951 17.48 140.331 18.58 140.331 19.94C 140.331 22.14 139.541 23.76 137.961 24.8C 136.401 25.84 134.261 26.36 131.541 26.36ZM 143.66 5.42L 159.83 5.42L 159.83 9.11L 148.01 9.11L 148.01 13.64L 158.51 13.64L 158.51 17.33L 148.01 17.33L 148.01 22.31L 160.01 22.31L 160.01 26L 143.66 26L 143.66 5.42ZM 163.67 5.42L 172.19 5.42C 175.33 5.42 177.75 6.28 179.45 8C 181.17 9.7 182.03 12.27 182.03 15.71C 182.03 19.15 181.17 21.73 179.45 23.45C 177.75 25.15 175.33 26 172.19 26L 163.67 26L 163.67 5.42ZM 172.19 22.31C 173.95 22.31 175.28 21.78 176.18 20.72C 177.1 19.64 177.56 18.12 177.56 16.16L 177.56 15.26C 177.56 13.3 177.1 11.79 176.18 10.73C 175.28 9.65 173.95 9.11 172.19 9.11L 168.02 9.11L 168.02 22.31L 172.19 22.31Z"/>
<path id="path2_fill" d="M 35 17.5C 35 27.165 27.165 35 17.5 35C 7.83502 35 0 27.165 0 17.5C 0 7.83502 7.83502 0 17.5 0C 27.165 0 35 7.83502 35 17.5Z"/>
<path id="path3_stroke_2x" d="M 34 17.5C 34 26.6127 26.6127 34 17.5 34L 17.5 36C 27.7173 36 36 27.7173 36 17.5L 34 17.5ZM 17.5 34C 8.3873 34 1 26.6127 1 17.5L -1 17.5C -1 27.7173 7.28273 36 17.5 36L 17.5 34ZM 1 17.5C 1 8.3873 8.3873 1 17.5 1L 17.5 -1C 7.28273 -1 -1 7.28273 -1 17.5L 1 17.5ZM 17.5 1C 26.6127 1 34 8.3873 34 17.5L 36 17.5C 36 7.28273 27.7173 -1 17.5 -1L 17.5 1Z"/>
<path id="path4_fill" d="M 0 18.8863C 0 10.5035 8.125 2.32157 12.5 0L 12.5 31.4353C 5.3125 31.4353 0 25.349 0 18.8863Z"/>
<path id="path5_stroke" d="M 12.5 0L 13 0L 13 -0.831357L 12.2656 -0.441669L 12.5 0ZM 12.5 31.4353L 12.5 31.9353L 13 31.9353L 13 31.4353L 12.5 31.4353ZM 12.2656 -0.441669C 10.0011 0.759981 6.82353 3.43936 4.21167 6.86716C 1.60064 10.2939 -0.5 14.5407 -0.5 18.8863L 0.5 18.8863C 0.5 14.8491 2.46186 10.8136 5.00708 7.47323C 7.55147 4.13398 10.6239 1.56159 12.7344 0.441669L 12.2656 -0.441669ZM -0.5 18.8863C -0.5 25.6036 5.01532 31.9353 12.5 31.9353L 12.5 30.9353C 5.60968 30.9353 0.5 25.0944 0.5 18.8863L -0.5 18.8863ZM 13 31.4353L 13 0L 12 0L 12 31.4353L 13 31.4353Z"/>
<path id="path6_fill" d="M 0 18.924C 0 10.5245 8.125 2.3262 12.5 0L 12.5 31.498C 5.3125 31.498 0 25.3996 0 18.924Z"/>
<path id="path7_stroke" d="M 12.5 0L 13 0L 13 -0.832135L 12.2653 -0.441475L 12.5 0ZM 12.5 31.498L 12.5 31.998L 13 31.998L 13 31.498L 12.5 31.498ZM 12.2653 -0.441475C 10.0007 0.762594 6.82317 3.4473 4.21138 6.88185C 1.60037 10.3154 -0.5 14.5704 -0.5 18.924L 0.5 18.924C 0.5 14.8781 2.46213 10.8342 5.00737 7.48716C 7.55183 4.14114 10.6243 1.56361 12.7347 0.441475L 12.2653 -0.441475ZM -0.5 18.924C -0.5 25.6533 5.0144 31.998 12.5 31.998L 12.5 30.998C 5.6106 30.998 0.5 25.146 0.5 18.924L -0.5 18.924ZM 13 31.498L 13 0L 12 0L 12 31.498L 13 31.498Z"/>
</defs>
</svg>
