<svg width="20" height="20" viewBox="0 0 20 20" version="1.1" xmlns="http://www.w3.org/2000/svg" xmlns:xlink="http://www.w3.org/1999/xlink">
<title>signin-google-icon</title>
<desc>Created using Figma</desc>
<g id="Canvas" transform="translate(2686 9554)">
<g id="signin-google-icon">
<g id="Vector">
<use xlink:href="#path0_fill" transform="translate(-2686 -9548.6)" fill="#FBBB00"/>
</g>
<g id="Vector">
<use xlink:href="#path1_fill" transform="translate(-2675.78 -9545.87)" fill="#518EF8"/>
</g>
<g id="Vector">
<use xlink:href="#path2_fill" transform="translate(-2684.81 -9541.91)" fill="#28B446"/>
</g>
<g id="Vector">
<use xlink:href="#path3_fill" transform="translate(-2684.88 -9554)" fill="#F14336"/>
</g>
</g>
</g>
<defs>
<path id="path0_fill" d="M 4.43242 6.68516L 3.73625 9.28406L 1.19176 9.33789C 0.431328 7.92746 0 6.31375 0 4.59891C 0 2.94066 0.403281 1.37691 1.11812 2.09808e-07L 1.11867 2.09808e-07L 3.38398 0.415312L 4.37633 2.66703C 4.16863 3.27254 4.05543 3.92254 4.05543 4.59891C 4.05551 5.33297 4.18848 6.03629 4.43242 6.68516Z"/>
<path id="path1_fill" d="M 9.60543 -2.00272e-07C 9.72027 0.604922 9.78016 1.22965 9.78016 1.86813C 9.78016 2.58406 9.70488 3.28242 9.56148 3.95605C 9.07469 6.24836 7.8027 8.25 6.04063 9.66648L 6.04008 9.66594L 3.1868 9.52035L 2.78297 6.99945C 3.95219 6.31375 4.86594 5.24066 5.34727 3.95605L -3.62396e-07 3.95605L -3.62396e-07 -2.00272e-07L 5.42527 -2.00272e-07L 9.60543 -2.00272e-07Z"/>
<path id="path2_fill" d="M 15.0681 5.71152L 15.0687 5.71207C 13.355 7.08953 11.178 7.91371 8.80824 7.91371C 5 7.91371 1.68902 5.78516 3.03984e-08 2.65273L 3.24066 -1.33514e-07C 4.08516 2.25383 6.25934 3.85824 8.80824 3.85824C 9.90383 3.85824 10.9302 3.56207 11.811 3.04504L 15.0681 5.71152Z"/>
<path id="path3_fill" d="M 15.2648 2.30219L 12.0253 4.95437C 11.1138 4.38461 10.0363 4.05547 8.88188 4.05547C 6.27527 4.05547 4.06043 5.73348 3.25824 8.06812L 0.000546894 5.40109L 2.14577e-08 5.40109C 1.6643 2.1923 5.01703 0 8.88188 0C 11.3082 0 13.533 0.864297 15.2648 2.30219Z"/>
</defs>
</svg>
