<svg width="20" height="20" viewBox="0 0 20 20" version="1.1" xmlns="http://www.w3.org/2000/svg" xmlns:xlink="http://www.w3.org/1999/xlink">
<title>signin-twitter-icon</title>
<desc>Created using Figma</desc>
<g id="Canvas" transform="translate(2636 9512)">
<g id="signin-twitter-icon">
<g id="Dark Blue">
<g id="Vector">
<use xlink:href="#path0_fill" transform="translate(-2636 -9512)" fill="#1DA1F2"/>
</g>
</g>
<g id="Logo &#226;&#128;&#148; FIXED">
<g id="Vector">
<use xlink:href="#path1_fill" transform="translate(-2632.25 -9507.08)" fill="#FFFFFF"/>
</g>
</g>
</g>
</g>
<defs>
<path id="path0_fill" d="M 20 0L 0 0L 0 20L 20 20L 20 0Z"/>
<path id="path1_fill" d="M 3.931 10.1569C 8.648 10.1569 11.228 6.2489 11.228 2.8599C 11.228 2.7489 11.228 2.6384 11.2205 2.5284C 11.7224 2.16536 12.1557 1.71584 12.5 1.2009C 12.0319 1.4083 11.5354 1.54431 11.027 1.6044C 11.5624 1.28389 11.9631 0.779786 12.1545 0.1859C 11.6511 0.484628 11.1003 0.695157 10.526 0.808401C 10.1393 0.397243 9.62793 0.124984 9.07094 0.0337568C 8.51394 -0.0574708 7.94241 0.0374184 7.44477 0.30374C 6.94714 0.570063 6.55116 0.99297 6.31809 1.50702C 6.08503 2.02107 6.02789 2.5976 6.1555 3.1474C 5.13588 3.09628 4.1384 2.83132 3.22782 2.3697C 2.31724 1.90808 1.51392 1.26012 0.87 0.4679C 0.542046 1.03248 0.4416 1.70083 0.589114 2.33687C 0.736629 2.97291 1.12101 3.52881 1.664 3.8914C 1.25587 3.8793 0.85664 3.76921 0.5 3.5704C 0.5 3.5809 0.5 3.5919 0.5 3.6029C 0.500162 4.19501 0.705131 4.76884 1.08014 5.22705C 1.45515 5.68526 1.97712 5.99966 2.5575 6.1169C 2.17993 6.21987 1.78379 6.23492 1.3995 6.1609C 1.56338 6.67048 1.88243 7.11611 2.31204 7.43544C 2.74164 7.75477 3.26031 7.93185 3.7955 7.9419C 2.88737 8.65562 1.76553 9.04306 0.6105 9.0419C 0.406452 9.04151 0.202602 9.02915 7.10543e-16 9.0049C 1.17282 9.75754 2.53746 10.1568 3.931 10.1549"/>
</defs>
</svg>
